<svg xmlns="http://www.w3.org/2000/svg" viewBox="0 0 1235.856 739.766"><defs><style>.cls-1{fill:#4fb81c;}.cls-2,.cls-3,.cls-4{fill:#efab1f;}.cls-3,.cls-9{opacity:0.7;}.cls-10,.cls-4{opacity:0.4;}.cls-5{fill:#1d1d1b;}.cls-6{fill:#e35500;}.cls-7{fill:#148fcf;}.cls-8{fill:#942582;}</style></defs><g id="Ebene_2" data-name="Ebene 2"><g id="Layer_1" data-name="Layer 1"><path d="M694.579,639.266v-3a23.906,23.906,0,0,0-16.163,6.274l-22.958-22.957a16.5,16.5,0,1,0-29.777-.443l-20.314,20.314a19.5,19.5,0,1,0-8.288,37.146c.115,0,.228-.006.342-.009l24.666,23.976a42.045,42.045,0,0,0-23.508,37.7v1.5h84v-1.5a41.927,41.927,0,0,0-15.128-32.249l-50.917-50.174a19.358,19.358,0,0,0-2.4-8.185L634.3,627.486a16.47,16.47,0,0,0,12.271.185l25.18,25.18a23.993,23.993,0,0,0,22.823,31.415v-3a21,21,0,0,1,0-42Zm-114,17.834a16.5,16.5,0,1,1,16.5,16.5A16.519,16.519,0,0,1,580.579,657.1Zm98.971,79.666H601.607a39,39,0,0,1,77.943,0Zm-38.971-40.5a41.743,41.743,0,0,0-15.536,2.991l-23.779-23.114A19.547,19.547,0,0,0,616.375,659.9L656.45,699.39A41.759,41.759,0,0,0,640.579,696.266Zm-28.14-51.157a19.657,19.657,0,0,0-4.375-4.11l19.174-19.174A16.634,16.634,0,0,0,631.547,626Zm14.736-32.843a13.5,13.5,0,1,1,13.5,13.5A13.515,13.515,0,0,1,627.175,612.266Zm22.23,13.992a16.654,16.654,0,0,0,4.431-4.055l22.5,22.5a24.066,24.066,0,0,0-3.361,5.125Z"/><path class="cls-1" d="M708.966,652.487a15.731,15.731,0,1,0,2.113,7.875A15.737,15.737,0,0,0,708.966,652.487Z"/><path class="cls-2" d="M681.691,652.487h27.275a15.746,15.746,0,0,0-27.275,0Z"/><path class="cls-3" d="M681.691,652.487a15.67,15.67,0,0,0-2.112,7.875h31.5a15.67,15.67,0,0,0-2.113-7.875Z"/><path class="cls-4" d="M681.691,668.237h27.275a15.67,15.67,0,0,0,2.113-7.875h-31.5A15.67,15.67,0,0,0,681.691,668.237Z"/><path class="cls-5" d="M485.025,702.989A6.976,6.976,0,1,1,492,696.018,6.981,6.981,0,0,1,485.025,702.989Zm0-10.951a3.976,3.976,0,1,0,3.974,3.98A3.982,3.982,0,0,0,485.025,692.038Zm33.071,4.4v4.267c0,5.924-2.414,8.34-8.332,8.34H460.306c-5.934,0-8.354-2.416-8.354-8.34V694.5h-3v6.209c0,7.631,3.714,11.34,11.354,11.34h49.458c7.625,0,11.332-3.709,11.332-11.34v-1.267Zm28.74-35.2h0l-7.648-13.251c-.106-.184-.222-.357-.338-.531l-.162-.246c-.038-.059-.076-.118-.113-.171-.212-.311-.439-.608-.671-.9l-.047-.06c-.045-.057-.09-.114-.135-.166-.24-.286-.489-.558-.8-.874-.056-.058-.112-.116-.161-.163-.252-.248-.513-.482-.781-.709l-.06-.052c-.079-.066-.157-.132-.24-.2-.246-.2-.5-.384-.745-.557-.145-.1-.291-.2-.447-.3-.22-.142-.443-.276-.664-.4-.2-.117-.4-.229-.614-.337-.183-.093-.369-.181-.555-.267-.256-.117-.515-.23-.778-.334-.155-.06-.311-.116-.465-.17-.293-.1-.589-.2-.9-.287-.115-.033-.231-.062-.347-.09l-.08-.02c-.311-.078-.623-.148-.937-.205-.124-.022-.247-.041-.371-.057l-.1-.015c-.306-.045-.611-.086-.924-.111-.143-.011-.286-.017-.429-.023l-.294-.016c-.157-.01-.313-.02-.473-.02H521.1V577.568c0-7.634-3.707-11.344-11.332-11.344H460.306c-7.64,0-11.354,3.71-11.354,11.342V620.18l-8.75-5.052a7.793,7.793,0,1,0-7.793,13.5l10.544,6.089v-3.465l-9.045-5.222a4.793,4.793,0,1,1,4.794-8.3l10.25,5.918v11.063h3V577.566c0-5.925,2.42-8.342,8.354-8.342h49.458c5.918,0,8.332,2.417,8.332,8.344v63.137H503.687a14.463,14.463,0,0,0-10.325,4.3L476.074,662.29l1.057,1.061c.651.652,1.333,1.335,1.9,1.9l0,0,1.3,1.295a14.584,14.584,0,0,0,20.57-.021l5.277-5.275H518.1l0,20.671a14.59,14.59,0,0,0,14.536,14.561l.754,0-.009-3-.746,0a11.583,11.583,0,0,1-11.535-11.562l0-23.67H504.929l-6.156,6.153a11.579,11.579,0,0,1-16.162.183l-.167-.167s-.988-.986-2.13-2.13l15.173-15.172a11.487,11.487,0,0,1,8.2-3.416h22.876c.092,0,.182.007.271.013l.375.02c.1,0,.207.008.308.016.246.021.487.054.731.089l.118.017c.084.012.166.023.254.039.251.045.5.1.745.163l.087.022c.086.022.173.042.253.065.24.068.478.146.714.23.123.042.246.086.367.134.209.081.413.171.615.264.15.069.3.139.446.214.163.084.322.173.485.267.181.1.358.21.527.319.116.076.23.153.353.241.2.141.4.289.593.442l.236.2c.212.18.419.365.628.57l.162.166c.2.21.4.426.6.656l.139.175c.186.23.365.464.538.715l.255.39c.079.119.16.237.231.36l6.056,10.492h0l9.874,17.1v-6Zm-95.65,27.249h-3.974a6.692,6.692,0,1,1,0-13.384h3.972a6.692,6.692,0,1,1,0,13.384Zm-3.974-10.384a3.692,3.692,0,0,0,0,7.384h3.976a3.692,3.692,0,0,0,0-7.384Zm8.962-23.317a7.827,7.827,0,0,0,.924-.781,7.794,7.794,0,0,0-5.512-13.3h-3.274a7.773,7.773,0,0,0-4.588,14.085,7.786,7.786,0,0,0,4.588,14.081h3.278a7.786,7.786,0,0,0,4.584-14.081ZM448.312,643.7h3.274a4.795,4.795,0,0,1,3.39,8.184,4.623,4.623,0,0,1-3.3,1.4H448.2a4.611,4.611,0,0,1-3.277-1.4,4.795,4.795,0,0,1,3.391-8.183Zm6.664,20.762a4.751,4.751,0,0,1-3.386,1.4h-3.282a4.791,4.791,0,0,1-.057-9.582h3.4a4.791,4.791,0,0,1,3.327,8.178Z"/><path class="cls-6" d="M506.171,661.253l-5.277,5.275a14.584,14.584,0,0,1-20.57.021l-1.3-1.295,0,0c-.566-.565-1.248-1.248-1.9-1.9l-1.057-1.061L493.362,645a14.463,14.463,0,0,1,10.325-4.3h8.128V577.631H458.236v66.826a7.736,7.736,0,0,1,0,8.094v4.5a7.709,7.709,0,0,1,0,8.079V683h53.579V661.254Z"/><rect class="cls-2" x="458.235" y="577.631" width="53.581" height="26.342"/><rect class="cls-3" x="458.235" y="603.974" width="53.581" height="26.341"/><path class="cls-4" d="M493.362,645a14.463,14.463,0,0,1,10.325-4.3h8.129V630.318H458.235v14.137a7.736,7.736,0,0,1,0,8.1v4.108H481.7Z"/><path class="cls-7" d="M696.318,380.184c0,2.947-9.552,6.674-26.25,8.8a233.81,233.81,0,0,1-29.25,1.7h0a233.8,233.8,0,0,1-29.25-1.7c-16.7-2.128-26.25-5.855-26.25-8.8h-3v24c0,4.106,6.017,7.454,17.885,9.953,3.456.727,7.275,1.35,11.365,1.862a239.675,239.675,0,0,0,29.25,1.685h0A239.687,239.687,0,0,0,670.068,416c4.09-.512,7.908-1.135,11.364-1.862,11.868-2.5,17.886-5.847,17.886-9.953v-24Z"/><path class="cls-2" d="M696.318,380.184c0,2.947-9.552,6.674-26.25,8.8V416c4.09-.512,7.908-1.135,11.364-1.862,11.868-2.5,17.886-5.847,17.886-9.953v-24Z"/><path class="cls-3" d="M640.818,390.684v27A239.687,239.687,0,0,0,670.068,416V388.986A233.81,233.81,0,0,1,640.818,390.684Z"/><path class="cls-4" d="M640.818,390.684a233.8,233.8,0,0,1-29.25-1.7V416a239.675,239.675,0,0,0,29.25,1.685h0v-27Z"/><path d="M681.432,298.231c-10.865-2.287-25.289-3.547-40.614-3.547s-29.75,1.26-40.615,3.547c-11.868,2.5-17.885,5.847-17.885,9.953v72c0,4.106,6.017,7.454,17.885,9.953,10.865,2.287,25.289,3.547,40.615,3.547s29.749-1.26,40.614-3.547c11.868-2.5,17.886-5.847,17.886-9.953v-72C699.318,304.078,693.3,300.729,681.432,298.231Zm-40.614-.547c34.385,0,55.5,6.116,55.5,10.5s-21.115,10.5-55.5,10.5-55.5-6.116-55.5-10.5S606.431,297.684,640.818,297.684Zm0,93c-34.387,0-55.5-6.116-55.5-10.5V360.815q4.332,3.089,14.885,5.322c10.865,2.287,25.289,3.547,40.615,3.547s29.749-1.26,40.614-3.547q10.553-2.221,14.886-5.322v19.369C696.318,384.568,675.2,390.684,640.818,390.684Zm0-24c-34.387,0-55.5-6.116-55.5-10.5V336.815q4.332,3.089,14.885,5.322c10.865,2.287,25.289,3.547,40.615,3.547s29.749-1.26,40.614-3.547q10.553-2.221,14.886-5.322v19.369C696.318,360.568,675.2,366.684,640.818,366.684Zm0-24c-34.387,0-55.5-6.116-55.5-10.5V312.815q4.332,3.089,14.885,5.322c10.865,2.287,25.289,3.547,40.615,3.547s29.749-1.26,40.614-3.547q10.553-2.221,14.886-5.322v19.369C696.318,336.568,675.2,342.684,640.818,342.684Zm-38.4,34.379a1.5,1.5,0,0,1-1.771,1.167c-2.528-.521-4.841-1.093-6.876-1.7a1.5,1.5,0,1,1,.859-2.874c1.952.582,4.18,1.133,6.622,1.636A1.5,1.5,0,0,1,602.421,377.063Zm0-24.073a1.493,1.493,0,0,1-1.771,1.166c-2.521-.519-4.834-1.091-6.875-1.7a1.5,1.5,0,0,1,.857-2.875c1.959.585,4.187,1.135,6.623,1.637A1.5,1.5,0,0,1,602.421,352.99Zm0-23.5a1.5,1.5,0,0,1-1.771,1.166c-2.525-.52-4.838-1.092-6.876-1.7a1.5,1.5,0,1,1,.859-2.874c1.954.583,4.182,1.134,6.622,1.637A1.5,1.5,0,0,1,602.421,329.487Z"/><path d="M875.659,155.862a6.375,6.375,0,1,0-6.375-6.375A6.382,6.382,0,0,0,875.659,155.862Zm0-9.75a3.375,3.375,0,1,1-3.375,3.375A3.379,3.379,0,0,1,875.659,146.112Z"/><path d="M973.638,155.862a6.375,6.375,0,1,0-6.375-6.375A6.382,6.382,0,0,0,973.638,155.862Zm0-9.75a3.375,3.375,0,1,1-3.375,3.375A3.379,3.379,0,0,1,973.638,146.112Z"/><path class="cls-8" d="M924.927,188.19v-78c22.5,0,39,17.461,39,39S947.427,188.19,924.927,188.19Z"/><path class="cls-2" d="M958.722,129.859c-6.743-12.75-18.795-19.669-33.795-19.669v19.669Z"/><path class="cls-3" d="M924.927,129.859v19.5h39.014c0-7.5-1.9-15-5.219-19.5Z"/><path class="cls-4" d="M924.927,168.859h33.795a36.487,36.487,0,0,0,5.219-19.5H924.927Z"/><path d="M924.941,187.917a38.727,38.727,0,1,1,0-77.454v3a35.727,35.727,0,1,0,0,71.454Zm9.183,29.935,1.3-.172v-9.864a50.375,50.375,0,0,0,9.392-2.476l4.96,8.543,1.208-.492a68.953,68.953,0,0,0,16.448-9.539l1.025-.8-4.907-8.512a60.207,60.207,0,0,0,6.706-6.7l8.486,4.9.8-1.035a68.916,68.916,0,0,0,9.458-16.48l.487-1.211-8.431-4.844a65.049,65.049,0,0,0,2.447-9.3h9.706l.165-1.312a68.739,68.739,0,0,0,.605-8.89,67.3,67.3,0,0,0-.683-9.511l-.185-1.287h-9.574a51.615,51.615,0,0,0-2.479-9.487l8.244-4.832-.5-1.206A69.042,69.042,0,0,0,979.22,106.9l-.8-1.02-8.154,4.689a60.2,60.2,0,0,0-6.7-6.713l4.681-8.113-1.035-.8a68.834,68.834,0,0,0-16.478-9.464l-1.2-.484-4.705,8.052a50.437,50.437,0,0,0-9.395-2.478V81.3l-1.3-.173a66.039,66.039,0,0,0-18.4.018l-1.3.177v9.247a51.365,51.365,0,0,0-9.4,2.476l-4.659-8.012-1.206.488a68.918,68.918,0,0,0-16.477,9.493l-1.03.8,4.628,8.031a60.055,60.055,0,0,0-6.707,6.7l-8.062-4.654-.8,1.023a68.945,68.945,0,0,0-9.575,16.414l-.49,1.2,8.129,4.84a51.553,51.553,0,0,0-2.483,9.5h-9.435l-.185,1.287a67.2,67.2,0,0,0-.684,9.511,68.794,68.794,0,0,0,.605,8.889l.165,1.313h9.568a65.063,65.063,0,0,0,2.447,9.3l-8.318,4.791.485,1.208a68.856,68.856,0,0,0,9.44,16.484l.8,1.038,8.39-4.847a60.068,60.068,0,0,0,6.7,6.7l-4.87,8.434,1.023.8a68.9,68.9,0,0,0,16.416,9.569l1.2.494,4.975-8.5a51.371,51.371,0,0,0,9.408,2.478v9.841l1.3.177a66.039,66.039,0,0,0,18.4.018Zm-16.7-12.63-1.291-.181a48.788,48.788,0,0,1-11.243-2.948l-1.187-.451-4.928,8.423a65.921,65.921,0,0,1-13.473-7.856l4.832-8.368-.989-.807a57.02,57.02,0,0,1-8.076-8.075l-.807-.988-8.306,4.8a65.869,65.869,0,0,1-7.743-13.521l8.25-4.751-.454-1.2a61.179,61.179,0,0,1-2.955-11.192l-.21-1.251h-9.438a63.371,63.371,0,0,1-.425-7.2,64.049,64.049,0,0,1,.482-7.8h9.417l.181-1.291a49.64,49.64,0,0,1,2.949-11.321l.447-1.178-8.05-4.793a65.957,65.957,0,0,1,7.864-13.48l8,4.615.807-.988a57.01,57.01,0,0,1,8.081-8.076l.987-.806-4.584-7.955a65.94,65.94,0,0,1,13.524-7.79l4.619,7.943,1.19-.452a48.831,48.831,0,0,1,11.243-2.949l1.291-.18V83.947a62.247,62.247,0,0,1,15-.013v9.224l1.292.18a48.786,48.786,0,0,1,11.23,2.95l1.187.451,4.667-7.988a65.851,65.851,0,0,1,13.525,7.766l-4.634,8.032.987.807a57,57,0,0,1,8.077,8.086l.806.986,8.089-4.653a66.088,66.088,0,0,1,7.877,13.5l-8.163,4.785.451,1.186a49.725,49.725,0,0,1,2.948,11.321l.181,1.291H990.5a64.012,64.012,0,0,1,.482,7.8,63.318,63.318,0,0,1-.425,7.2h-9.576l-.211,1.251a60.976,60.976,0,0,1-2.955,11.192l-.454,1.2,8.361,4.8a65.91,65.91,0,0,1-7.758,13.517l-8.4-4.851-.806.988a57.115,57.115,0,0,1-8.08,8.077l-.988.806,4.867,8.441a65.924,65.924,0,0,1-13.5,7.829l-4.916-8.469-1.191.452a48.728,48.728,0,0,1-11.23,2.949l-1.292.181v9.818a62.247,62.247,0,0,1-15-.013Z"/><path d="M918.984,106.844h12v-12h-12Zm3-9h6v6h-6Z"/><path d="M918.984,204.092h12v-12h-12Zm3-9h6v6h-6Z"/><path class="cls-7" d="M812.1,24a29.976,29.976,0,1,0,4.023,15A29.983,29.983,0,0,0,812.1,24Z"/><path class="cls-4" d="M760.143,24a29.844,29.844,0,0,0-4.024,15h60A29.854,29.854,0,0,0,812.1,24Z"/><path class="cls-3" d="M760.143,54H812.1a29.854,29.854,0,0,0,4.023-15h-60A29.844,29.844,0,0,0,760.143,54Z"/><path class="cls-2" d="M812.1,54H760.143A29.993,29.993,0,0,0,812.1,54Z"/><path d="M813.7,11.7a38.375,38.375,0,0,0-55.17,0,40.442,40.442,0,0,0-11.415,28.225,39.7,39.7,0,0,0,10.743,27.256c7.81,7.925,12.662,21.814,12.662,36.248v1.5h31.19v-1.5c0-14.9,4.37-27.882,11.99-35.613a39.492,39.492,0,0,0,11.415-27.891A40.446,40.446,0,0,0,813.7,11.7Zm-2.137,54.01c-7.907,8.023-12.55,21.161-12.839,36.219H787.619V75.375h-3v26.551H773.507c-.328-14.654-5.44-28.667-13.482-36.826a36.686,36.686,0,0,1-9.906-25.178A37.421,37.421,0,0,1,760.671,13.8a35.375,35.375,0,0,1,50.9,0,37.421,37.421,0,0,1,10.552,26.119A36.507,36.507,0,0,1,811.567,65.707ZM768.119,111h36v3h-36Zm0,9h36v3h-36Zm9,9h-9v3h9v12h18V132h9v-3h-27Zm15,12h-12v-9h12Z"/><path d="M589.06,48.525V27.8h7.171a8.411,8.411,0,0,1,5.262,1.376,4.616,4.616,0,0,1,1.745,3.841,5.308,5.308,0,0,1-.306,1.877,4.231,4.231,0,0,1-.849,1.4,4.7,4.7,0,0,1-1.25.962,5.954,5.954,0,0,1-1.5.553v.055a7.011,7.011,0,0,1,1.788.554,4.959,4.959,0,0,1,1.462,1.025,4.547,4.547,0,0,1,.973,1.483,5.181,5.181,0,0,1,.347,1.969,5.9,5.9,0,0,1-.43,2.27,4.635,4.635,0,0,1-1.309,1.784,6.266,6.266,0,0,1-2.209,1.162,10.432,10.432,0,0,1-3.115.417Zm1.928-11.512h5.079a7,7,0,0,0,3.867-.907,3.151,3.151,0,0,0,1.376-2.832,3.167,3.167,0,0,0-1.239-2.791,7.025,7.025,0,0,0-3.949-.866h-5.134Zm0,9.748h5.831a6.112,6.112,0,0,0,3.929-1.025,3.594,3.594,0,0,0,1.232-2.926,3.385,3.385,0,0,0-1.547-3.076,7.829,7.829,0,0,0-4.229-.984h-5.216Z"/><path d="M607.927,30.355V28.277h2.051v2.078Zm.055,18.17V33.773h1.928V48.525Z"/><path d="M612.89,50.46a2.981,2.981,0,0,1,.725-2,4.83,4.83,0,0,1,2.023-1.342,1.9,1.9,0,0,1-1.285-1.881,1.847,1.847,0,0,1,.48-1.229,4.183,4.183,0,0,1,1.284-.968,4.785,4.785,0,0,1-1.655-1.771,5.454,5.454,0,0,1-.143-4.621,5.041,5.041,0,0,1,1.217-1.675,5.653,5.653,0,0,1,1.838-1.094,7.091,7.091,0,0,1,4.673,0A5.489,5.489,0,0,1,623.891,35a6.973,6.973,0,0,1,1.568-.854,7.2,7.2,0,0,1,1.828-.485v1.927a8.833,8.833,0,0,0-1.343.108,5.666,5.666,0,0,0-1.344.377,4.605,4.605,0,0,1,.855,2.787,5.012,5.012,0,0,1-.449,2.149,4.909,4.909,0,0,1-1.215,1.636,5.27,5.27,0,0,1-1.819,1.034,7,7,0,0,1-2.273.359,6.639,6.639,0,0,1-2.379-.411,2.706,2.706,0,0,0-.855.526.973.973,0,0,0-.321.729.784.784,0,0,0,.459.728,5.425,5.425,0,0,0,1.72.4l3.221.246a8.131,8.131,0,0,1,3.87,1.115A2.976,2.976,0,0,1,626.726,50a3.261,3.261,0,0,1-.5,1.792,4.042,4.042,0,0,1-1.395,1.311,7.524,7.524,0,0,1-2.145.8,12.673,12.673,0,0,1-2.765.281,10.845,10.845,0,0,1-5.325-1A3.051,3.051,0,0,1,612.89,50.46Zm1.873-.241a1.953,1.953,0,0,0,1.278,1.8,9.833,9.833,0,0,0,4.068.625,7.655,7.655,0,0,0,3.541-.679,2.023,2.023,0,0,0,1.285-1.792,1.75,1.75,0,0,0-.917-1.6,7.6,7.6,0,0,0-3.092-.706l-2.921-.238-.781-.083a3.839,3.839,0,0,0-1.859,1.115A2.387,2.387,0,0,0,614.763,50.219Zm.985-11.387a3.549,3.549,0,0,0,1.08,2.72,4.656,4.656,0,0,0,5.776.016,3.5,3.5,0,0,0,1.06-2.679,3.817,3.817,0,0,0-1.033-2.824,4.631,4.631,0,0,0-5.831,0A3.7,3.7,0,0,0,615.748,38.832Z"/><path d="M637.089,48.525V27.8h5.237q5.085,0,7.69,2.582t2.605,7.72q0,5.17-2.632,7.8t-7.663,2.627Zm1.983-1.818h3.554a8.105,8.105,0,0,0,5.927-2.046q2.085-2.046,2.085-6.561,0-4.392-2.1-6.437a8.2,8.2,0,0,0-5.968-2.046h-3.5Z"/><path d="M655.341,45.07a4.2,4.2,0,0,1,.506-2.027,4.99,4.99,0,0,1,1.682-1.72,12.5,12.5,0,0,1,3.083-1.4,30.615,30.615,0,0,1,4.723-1.037v-.758a3.083,3.083,0,0,0-.764-2.292,3.045,3.045,0,0,0-2.225-.751,6.574,6.574,0,0,0-3.046.662,12.5,12.5,0,0,0-2.458,1.679L655.8,36.214a11.831,11.831,0,0,1,2.941-1.974,8.8,8.8,0,0,1,3.788-.754,4.656,4.656,0,0,1,3.616,1.243,4.965,4.965,0,0,1,1.123,3.455v6.7a20.845,20.845,0,0,0,.1,2.213,5.759,5.759,0,0,0,.314,1.433h-1.994q-.138-.481-.24-.97a5.583,5.583,0,0,1-.1-1.147,9.2,9.2,0,0,1-2.709,1.772,8.033,8.033,0,0,1-3.105.591,4.463,4.463,0,0,1-3.083-.98A3.462,3.462,0,0,1,655.341,45.07Zm1.928-.245a2.149,2.149,0,0,0,.71,1.76,3,3,0,0,0,1.965.586,6.887,6.887,0,0,0,2.907-.614,9.08,9.08,0,0,0,2.484-1.705V40.267a29.985,29.985,0,0,0-3.923.88,10.9,10.9,0,0,0-2.471,1.058,3.687,3.687,0,0,0-1.3,1.228A2.76,2.76,0,0,0,657.269,44.825Z"/><path d="M669.984,35.427V33.773h2.584V28.482H674.5v5.291h3.828v1.654H674.5v9.267a2.909,2.909,0,0,0,.478,1.8,2.225,2.225,0,0,0,1.846.623h.827a2.462,2.462,0,0,0,.718-.1v1.531c-.228.036-.52.074-.875.11a10.323,10.323,0,0,1-1.039.054,4.251,4.251,0,0,1-3-.854,3.743,3.743,0,0,1-.882-2.782V35.427Z"/><path d="M680.771,45.07a4.2,4.2,0,0,1,.506-2.027,4.987,4.987,0,0,1,1.681-1.72,12.539,12.539,0,0,1,3.083-1.4,30.63,30.63,0,0,1,4.724-1.037v-.758A3.083,3.083,0,0,0,690,35.836a3.043,3.043,0,0,0-2.224-.751,6.571,6.571,0,0,0-3.046.662,12.466,12.466,0,0,0-2.458,1.679l-1.047-1.212a11.831,11.831,0,0,1,2.941-1.974,8.8,8.8,0,0,1,3.788-.754,4.656,4.656,0,0,1,3.616,1.243,4.965,4.965,0,0,1,1.123,3.455v6.7a20.845,20.845,0,0,0,.1,2.213,5.759,5.759,0,0,0,.314,1.433h-1.994q-.138-.481-.24-.97a5.514,5.514,0,0,1-.1-1.147,9.213,9.213,0,0,1-2.709,1.772,8.033,8.033,0,0,1-3.105.591,4.461,4.461,0,0,1-3.083-.98A3.459,3.459,0,0,1,680.771,45.07Zm1.928-.245a2.149,2.149,0,0,0,.71,1.76,3,3,0,0,0,1.965.586,6.891,6.891,0,0,0,2.907-.614,9.11,9.11,0,0,0,2.484-1.705V40.267a30.043,30.043,0,0,0-3.924.88,10.909,10.909,0,0,0-2.47,1.058,3.678,3.678,0,0,0-1.3,1.228A2.76,2.76,0,0,0,682.7,44.825Z"/><path d="M591.576,82.186l1.23-1.122a6.6,6.6,0,0,0,1.948,1.56,5.655,5.655,0,0,0,2.646.575,5.1,5.1,0,0,0,2.871-.665,2.191,2.191,0,0,0,.971-1.926,2.031,2.031,0,0,0-.957-1.823,10.492,10.492,0,0,0-3.1-1.125l-2.213-.689a5.193,5.193,0,0,1-1.629-.8,3.19,3.19,0,0,1-.964-1.161,3.819,3.819,0,0,1-.321-1.652,3.412,3.412,0,0,1,.335-1.484,3.629,3.629,0,0,1,.978-1.239,4.8,4.8,0,0,1,1.565-.841,6.692,6.692,0,0,1,2.126-.308,7.84,7.84,0,0,1,3.2.574,7.509,7.509,0,0,1,2.27,1.56l-1.094,1.286a6.527,6.527,0,0,0-1.9-1.327,5.666,5.666,0,0,0-2.407-.494,5.169,5.169,0,0,0-1.476.182,2.867,2.867,0,0,0-.978.485,2,2,0,0,0-.56.687,1.83,1.83,0,0,0-.185.8,1.788,1.788,0,0,0,.832,1.595,8.991,8.991,0,0,0,2.771.991l2.416.736a5.529,5.529,0,0,1,1.768.869,3.455,3.455,0,0,1,1.056,1.289,4.438,4.438,0,0,1,.345,1.864,3.61,3.61,0,0,1-.438,1.792,4.094,4.094,0,0,1-1.189,1.331,5.339,5.339,0,0,1-1.805.818,9.2,9.2,0,0,1-2.31.272,7.729,7.729,0,0,1-3.466-.734A6.323,6.323,0,0,1,591.576,82.186Z"/><path d="M605.685,77.156a9.365,9.365,0,0,1,.532-3.275,7.175,7.175,0,0,1,1.442-2.406,6.011,6.011,0,0,1,2.131-1.483,6.7,6.7,0,0,1,2.587-.506,6.619,6.619,0,0,1,2.56.506,6.053,6.053,0,0,1,2.128,1.483,7.161,7.161,0,0,1,1.443,2.406,10.328,10.328,0,0,1,0,6.556,7.241,7.241,0,0,1-1.443,2.406,6,6,0,0,1-2.128,1.491,6.741,6.741,0,0,1-5.12,0,6.1,6.1,0,0,1-2.145-1.491,7.134,7.134,0,0,1-1.455-2.406A9.349,9.349,0,0,1,605.685,77.156Zm1.928-.028a8.885,8.885,0,0,0,.294,2.325,5.774,5.774,0,0,0,.9,1.921,4.542,4.542,0,0,0,1.5,1.319,4.623,4.623,0,0,0,4.067.041,4.453,4.453,0,0,0,1.485-1.251,5.688,5.688,0,0,0,.938-1.9,8.756,8.756,0,0,0,.322-2.455,8.381,8.381,0,0,0-.308-2.29,6.025,6.025,0,0,0-.9-1.9,4.5,4.5,0,0,0-1.472-1.306,4.165,4.165,0,0,0-2.061-.492,4.349,4.349,0,0,0-2,.451,4.431,4.431,0,0,0-1.5,1.244,5.61,5.61,0,0,0-.939,1.9A8.56,8.56,0,0,0,607.613,77.128Z"/><path d="M622.556,80.437V69.773h1.928V80.1a3.354,3.354,0,0,0,.7,2.331,2.915,2.915,0,0,0,2.242.759,5.208,5.208,0,0,0,2.646-.7,13.709,13.709,0,0,0,2.481-1.88V69.773h1.928V84.525H632.55V82.2a11.242,11.242,0,0,1-2.467,1.852,6.3,6.3,0,0,1-3.138.786,4.313,4.313,0,0,1-3.3-1.162A4.555,4.555,0,0,1,622.556,80.437Z"/><path d="M638.962,84.525V69.773h1.928V72.71h.055a7.5,7.5,0,0,1,2.276-2.308,6.423,6.423,0,0,1,3.575-.916h.342l-.191,1.818h-.287a1.327,1.327,0,0,1-.192-.013.87.87,0,0,0-.109-.014,5.506,5.506,0,0,0-3.213.955,7,7,0,0,0-2.256,2.715v9.578Z"/><path d="M648.369,77.156a9.513,9.513,0,0,1,.556-3.425,7.029,7.029,0,0,1,1.477-2.393,5.736,5.736,0,0,1,2.116-1.4,6.823,6.823,0,0,1,2.427-.451,6.25,6.25,0,0,1,2.085.321,5.046,5.046,0,0,1,1.579.882,6.194,6.194,0,0,1,1.162,1.292,8.387,8.387,0,0,1,.82,1.538l-1.64.725a6.014,6.014,0,0,0-1.566-2.3,3.712,3.712,0,0,0-2.5-.8,4.7,4.7,0,0,0-1.647.308,3.8,3.8,0,0,0-1.484,1.025,5.369,5.369,0,0,0-1.059,1.86,8.441,8.441,0,0,0-.4,2.8,8.719,8.719,0,0,0,.349,2.584,5.812,5.812,0,0,0,.95,1.887,4.142,4.142,0,0,0,1.429,1.176,4,4,0,0,0,1.8.41,3.927,3.927,0,0,0,2.5-.745,6.648,6.648,0,0,0,1.743-2.4l1.559.669a11.114,11.114,0,0,1-.985,1.7,5.75,5.75,0,0,1-1.264,1.305,5.623,5.623,0,0,1-1.614.827,6.412,6.412,0,0,1-2.016.294,6.017,6.017,0,0,1-2.42-.5,5.826,5.826,0,0,1-2.041-1.491,7.3,7.3,0,0,1-1.395-2.406A9.621,9.621,0,0,1,648.369,77.156Z"/><path d="M662.984,77.128a9.156,9.156,0,0,1,.574-3.4,6.991,6.991,0,0,1,1.5-2.379,6.2,6.2,0,0,1,2.071-1.4,6.093,6.093,0,0,1,2.318-.465,5.807,5.807,0,0,1,2.4.492,5.219,5.219,0,0,1,1.9,1.456,7.134,7.134,0,0,1,1.265,2.406,10.809,10.809,0,0,1,.465,3.316v.369H664.912a7.235,7.235,0,0,0,.376,2.432,5.572,5.572,0,0,0,1,1.786,4.25,4.25,0,0,0,3.268,1.5,4.8,4.8,0,0,0,2.7-.694,6.713,6.713,0,0,0,1.894-2.012l1.2.961a7.764,7.764,0,0,1-2.4,2.447,6.45,6.45,0,0,1-3.521.9,6.316,6.316,0,0,1-2.461-.492,5.659,5.659,0,0,1-2.055-1.476,7.492,7.492,0,0,1-1.408-2.407A9.568,9.568,0,0,1,662.984,77.128Zm1.955-1.148h8.654a9.369,9.369,0,0,0-.376-1.932,4.94,4.94,0,0,0-.793-1.567,3.482,3.482,0,0,0-1.271-1.031,3.98,3.98,0,0,0-1.743-.365,4.119,4.119,0,0,0-1.545.3,4.011,4.011,0,0,0-1.347.9,5.1,5.1,0,0,0-1.025,1.519A7.052,7.052,0,0,0,664.939,75.98Z"/><path d="M677.8,82.186l1.231-1.122a6.573,6.573,0,0,0,1.948,1.56,5.648,5.648,0,0,0,2.645.575,5.093,5.093,0,0,0,2.871-.665,2.189,2.189,0,0,0,.971-1.926,2.029,2.029,0,0,0-.957-1.823,10.494,10.494,0,0,0-3.1-1.125l-2.213-.689a5.193,5.193,0,0,1-1.629-.8,3.18,3.18,0,0,1-.964-1.161,3.8,3.8,0,0,1-.321-1.652,3.4,3.4,0,0,1,.335-1.484,3.614,3.614,0,0,1,.977-1.239,4.808,4.808,0,0,1,1.566-.841,6.692,6.692,0,0,1,2.126-.308,7.844,7.844,0,0,1,3.2.574,7.517,7.517,0,0,1,2.269,1.56l-1.093,1.286a6.531,6.531,0,0,0-1.9-1.327,5.661,5.661,0,0,0-2.406-.494,5.182,5.182,0,0,0-1.477.182,2.861,2.861,0,0,0-.977.485,2,2,0,0,0-.561.687,1.828,1.828,0,0,0-.184.8,1.786,1.786,0,0,0,.832,1.595,8.973,8.973,0,0,0,2.77.991l2.416.736a5.545,5.545,0,0,1,1.769.869A3.474,3.474,0,0,1,689,78.721a4.439,4.439,0,0,1,.344,1.864,3.609,3.609,0,0,1-.437,1.792,4.1,4.1,0,0,1-1.19,1.331,5.334,5.334,0,0,1-1.8.818,9.2,9.2,0,0,1-2.311.272,7.732,7.732,0,0,1-3.466-.734A6.339,6.339,0,0,1,677.8,82.186Z"/><rect x="639.069" y="467.472" width="3" height="36"/><rect x="639.069" y="210.2" width="3" height="36"/><rect x="751.205" y="356.469" width="36" height="3"/><rect x="1061.53" y="354.236" width="36" height="3"/><rect x="493.932" y="356.469" width="36" height="3"/><rect x="172.521" y="366.469" width="36" height="3"/><rect x="721.744" y="421.511" width="3" height="36" transform="translate(-98.948 640.141) rotate(-45)"/><rect x="556.393" y="256.161" width="3" height="36" transform="translate(-30.458 474.79) rotate(-45)"/><rect x="706.045" y="273.462" width="36" height="3" transform="translate(17.641 592.512) rotate(-45)"/><rect x="540.694" y="438.812" width="36" height="3" transform="translate(-147.71 524.021) rotate(-45)"/><rect x="685.156" y="449.805" width="3" height="36" transform="translate(-130.233 316.049) rotate(-23.742)"/><rect x="593.783" y="227.535" width="3" height="36" transform="translate(-48.477 260.45) rotate(-23.742)"/><rect x="666.295" y="243.298" width="36" height="3" transform="translate(208.048 793.775) rotate(-68.742)"/><rect x="582.021" y="468.509" width="36" height="3" transform="translate(-55.556 858.79) rotate(-68.742)"/><path d="M996.519,299.1l-.1-1.387h-1.395a8.345,8.345,0,0,1-7.86-4.643,15.466,15.466,0,0,1-1.6-6.48v-1.177l-7.3-1.77-46.245-11.22-46.245,11.22-7.3,1.77v1.177a12.49,12.49,0,0,1-1.687,6.788,9.724,9.724,0,0,1-7.77,4.335h-1.4l-.1,1.387a143.125,143.125,0,0,0,5.678,45.2c.982,3.39,2.16,6.967,3.585,10.665a123.787,123.787,0,0,0,10.057,20.482,111.945,111.945,0,0,0,27.12,30.345,115.42,115.42,0,0,0,17.355,11.085l.7.368.7-.368a115.42,115.42,0,0,0,17.355-11.085,111.945,111.945,0,0,0,27.12-30.345,123.513,123.513,0,0,0,9.968-20.25c1.462-3.78,2.67-7.432,3.675-10.9A143.14,143.14,0,0,0,996.519,299.1Zm-8.587,44.468q-.36,1.248-.765,2.542a123.493,123.493,0,0,1-13.5,29.34,108.982,108.982,0,0,1-28.613,30.345,114.1,114.1,0,0,1-13.027,8.063A114.2,114.2,0,0,1,919,405.793a108.978,108.978,0,0,1-28.612-30.345,123.645,123.645,0,0,1-13.59-29.632q-.35-1.137-.675-2.25a143.479,143.479,0,0,1-5.663-43,13.685,13.685,0,0,0,6.338-2.707c2.347-1.868,4.387-4.958,4.657-10.088l17.04-4.132,33.533-8.13,33.517,8.13,17.07,4.14c.248,3.142,1.47,7.387,4.553,10.132a11.005,11.005,0,0,0,6.427,2.73A143.464,143.464,0,0,1,987.932,343.566Z"/><path class="cls-8" d="M940.254,330.463c.023,1.628.008,3.263.008,4.89v.4h-16.47v-5.3a8.232,8.232,0,0,1,16.312-1.725A11.074,11.074,0,0,1,940.254,330.463Zm45.885-23.745c-.037,2.2-.157,4.92-.42,8.04a139.5,139.5,0,0,1-4.972,27.12c-.315,1.088-.638,2.16-.983,3.225a113.654,113.654,0,0,1-14.692,30.345c-.45.66-.915,1.305-1.38,1.95a101.464,101.464,0,0,1-31.673,28.388,101.553,101.553,0,0,1-31.455-28.1c-.54-.735-1.072-1.485-1.59-2.243A113.717,113.717,0,0,1,884.267,345.1c-.278-.87-.548-1.755-.81-2.64a139.807,139.807,0,0,1-5.123-27.705c-.262-3.217-.382-6.007-.42-8.25.368-.172.713-.367,1.073-.577a19.465,19.465,0,0,0,9-11.52l44.032-10.68,44.228,10.725a22.679,22.679,0,0,0,.937,2.527A18.985,18.985,0,0,0,986.139,306.718Zm-34.912,31.973a2.744,2.744,0,0,0-2.918-2.918h-2.565v-.45c0-1.59.015-3.187-.007-4.777a20.815,20.815,0,0,0-.195-2.55,13.675,13.675,0,0,0-10.3-11.033c-.727-.165-1.47-.262-2.205-.39h-2.025c-.465.075-.937.143-1.41.225a13.657,13.657,0,0,0-11.272,13.013c-.053,1.822-.015,3.652-.023,5.475v.487h-2.527a2.751,2.751,0,0,0-2.955,2.963V360.3a2.74,2.74,0,0,0,2.925,2.91h32.557a2.744,2.744,0,0,0,2.918-2.917Z"/><path class="cls-2" d="M986.139,306.718c-.037,2.2-.157,4.92-.42,8.04H878.334c-.262-3.217-.382-6.007-.42-8.25.368-.172.713-.367,1.073-.577a19.465,19.465,0,0,0,9-11.52l44.032-10.68,44.228,10.725a22.679,22.679,0,0,0,.937,2.527A18.985,18.985,0,0,0,986.139,306.718Z"/><path class="cls-3" d="M940.254,330.463c.023,1.628.008,3.263.008,4.89v.4h-16.47v-5.3a8.232,8.232,0,0,1,16.312-1.725A11.074,11.074,0,0,1,940.254,330.463Zm-61.92-15.705a139.807,139.807,0,0,0,5.123,27.705c.262.885.532,1.77.81,2.64h28.56v-6.367a2.751,2.751,0,0,1,2.955-2.963h2.527v-.487c.008-1.823-.03-3.653.023-5.475A13.657,13.657,0,0,1,929.6,316.8c.473-.082.945-.15,1.41-.225h2.025c.735.128,1.478.225,2.205.39A13.675,13.675,0,0,1,945.542,328a20.815,20.815,0,0,1,.195,2.55c.022,1.59.007,3.187.007,4.777v.45h2.565a2.744,2.744,0,0,1,2.918,2.918V345.1h28.537c.345-1.065.668-2.137.983-3.225a139.5,139.5,0,0,0,4.972-27.12Z"/><path class="cls-4" d="M979.764,345.1a113.654,113.654,0,0,1-14.692,30.345h-66.1A113.717,113.717,0,0,1,884.267,345.1h28.56V360.3a2.74,2.74,0,0,0,2.925,2.91h32.557a2.744,2.744,0,0,0,2.918-2.917V345.1Z"/><path class="cls-7" d="M1232.106,306.1h-2.256v-3.757a3.754,3.754,0,0,0-3.75-3.75h-5.625l-6.745-15.128a5,5,0,0,0-4.535-2.817H1192.45a5.018,5.018,0,0,0-4.535,2.825l-6.75,15.12h-5.627a3.754,3.754,0,0,0-3.75,3.75V306.1h-2.256a3.754,3.754,0,0,0-3.75,3.75v6.782a3.755,3.755,0,0,0,3.75,3.75h2.256v3.006a3.754,3.754,0,0,0,3.75,3.75h6.009v5.6a3.755,3.755,0,0,0,3.75,3.75h31.044a3.754,3.754,0,0,0,3.75-3.75v-5.6h6.009a3.754,3.754,0,0,0,3.75-3.75v-3.006h2.256a3.755,3.755,0,0,0,3.75-3.75V309.85A3.754,3.754,0,0,0,1232.106,306.1Zm-37.083-7.507,2.016-4.971a2.036,2.036,0,0,1,1.791-1.037h3.982a2.014,2.014,0,0,1,1.779,1l2.03,5.009Z"/><path class="cls-2" d="M1175.538,327.138h6.009v5.6a3.755,3.755,0,0,0,3.75,3.75h31.044a3.754,3.754,0,0,0,3.75-3.75v-5.6h6.009a3.754,3.754,0,0,0,3.75-3.75v-.879h-58.062v.879A3.754,3.754,0,0,0,1175.538,327.138Z"/><path class="cls-3" d="M1165.782,316.632a3.755,3.755,0,0,0,3.75,3.75h2.256v2.135h58.062v-2.135h2.256a3.755,3.755,0,0,0,3.75-3.75V309.85a3.7,3.7,0,0,0-.243-1.292h-69.587a3.7,3.7,0,0,0-.244,1.292Z"/><path class="cls-4" d="M1232.106,306.1h-2.256v-3.757a3.754,3.754,0,0,0-3.75-3.75h-5.625l-1.779-3.99H1205l1.617,3.99h-11.6l1.618-3.99h-13.7l-1.781,3.99h-5.627a3.754,3.754,0,0,0-3.75,3.75V306.1h-2.256a3.745,3.745,0,0,0-3.508,2.462h69.59A3.746,3.746,0,0,0,1232.106,306.1Z"/><path d="M1212.584,336.49v62.48l-11.438,11.439-12.088-12.059,6.377-6.381-6.375-6.375,6.375-6.376-6.375-6.375,6.375-6.375-6.375-6.375,4.805-4.806h-1.06a3.755,3.755,0,0,1-3.75-3.75V336.49h3v15.047a.751.751,0,0,0,.75.75h8.3l-7.805,7.806,6.375,6.375-6.375,6.375,6.375,6.375-6.375,6.376,6.375,6.374-6.374,6.379,7.84,7.821,8.441-8.441V336.49Z"/><path d="M983.973,497.91h17.072a18.276,18.276,0,0,0-5.652,6h-11.42v3h13.216l.42-.807a15,15,0,0,1,26.729,0l.42.807h86.431l.42-.807a15,15,0,0,1,26.729,0l.42.807h13.215v-3h-11.419a18.276,18.276,0,0,0-5.652-6h17.071v-3h-168Zm131.072,0a18.276,18.276,0,0,0-5.652,6h-82.839a18.276,18.276,0,0,0-5.652-6Zm21.679-54h-29.751v45h45V470.891Zm-17.751,3h16l13.566,24h-29.566Zm-9,0h6v24h-6Zm39,39h-39v-12h39Zm-138,18a9,9,0,1,0,9,9A9.011,9.011,0,0,0,1010.973,503.91Zm0,15a6,6,0,1,1,6-6A6.007,6.007,0,0,1,1010.973,518.91Zm114-15a9,9,0,1,0,9,9A9.011,9.011,0,0,0,1124.973,503.91Zm0,15a6,6,0,1,1,6-6A6.007,6.007,0,0,1,1124.973,518.91Z"/><rect class="cls-6" x="1012.473" y="400.41" width="60" height="117" transform="translate(583.563 1501.384) rotate(-90)"/><rect class="cls-2" x="1034.973" y="422.91" width="15" height="117" transform="translate(561.063 1523.884) rotate(-90)"/><rect class="cls-3" x="1034.973" y="407.91" width="15" height="117" transform="translate(576.063 1508.884) rotate(-90)"/><rect class="cls-4" x="1034.973" y="392.91" width="15" height="117" transform="translate(591.063 1493.884) rotate(-90)"/><path class="cls-1" d="M922.959,558.3c0-5.433,2.18-9.837,4.868-9.84v-10.6H918.6a19.513,19.513,0,0,0-16.973,10.327l-.006.01a19.37,19.37,0,0,0-2.282,8.868v22.089h28.486V568.138C925.139,568.135,922.959,563.731,922.959,558.3Z"/><path class="cls-2" d="M901.629,548.182h26.2V537.859h-9.3A19.512,19.512,0,0,0,901.629,548.182Z"/><path class="cls-3" d="M922.959,558.3c0-5.433,2.18-9.837,4.868-9.84v-.277h-26.2l-.006.01a19.37,19.37,0,0,0-2.282,8.868v1.445h23.623C922.963,558.436,922.959,558.368,922.959,558.3Z"/><path class="cls-4" d="M922.964,558.5H899.341v10.325h28.486v-.687C925.172,568.135,923.018,563.839,922.964,558.5Z"/><path class="cls-5" d="M956.316,613.213a28.5,28.5,0,0,1-56.958-.026c-.016-.311-.025-28.029-.025-28.029h3s.008,27.614.022,27.9a25.5,25.5,0,0,0,50.967.026c.016-.312,0-33.925,0-33.925h-25.5v-3h25.5v-18.81a16.513,16.513,0,0,0-16.493-16.5H933.82v-3h3.009a19.511,19.511,0,0,1,19.487,19.5C956.306,612.864,956.333,612.864,956.316,613.213ZM934.2,558.3c0-6.465-2.739-11.34-6.372-11.34s-6.371,4.875-6.371,11.34,2.739,11.341,6.371,11.341S934.2,564.763,934.2,558.3Zm-3,0c0,5.092-2,8.341-3.372,8.341s-3.371-3.249-3.371-8.341,2-8.34,3.371-8.34S931.2,553.207,931.2,558.3Zm-7.844-49.43c-4.761-3.362-9.258-6.537-9.258-13.434v-.025h-3v.025c0,8.451,5.593,12.4,10.528,15.885,4.518,3.19,8.419,5.945,8.419,11.6a36.65,36.65,0,0,1-1.291,8.938h3.1a38.6,38.6,0,0,0,1.19-8.938C933.047,515.71,928.122,512.232,923.358,508.868Z"/><polygon class="cls-6" points="46.5 357.622 46.5 316.707 43.939 316.707 25.5 325.52 0 337.707 0 415.707 25.5 415.707 51 415.707 76.5 415.707 102 415.707 102 337.707 76.5 325.52 58.062 316.707 55.5 316.707 55.5 357.622 64.5 368.082 64.5 378.582 54 372.207 51 372.207 48 372.207 37.5 378.582 37.5 368.082 46.5 357.622"/><polygon class="cls-2" points="76.5 415.707 102 415.707 102 337.707 76.5 325.52 76.5 415.707"/><polygon class="cls-3" points="58.062 316.707 55.5 316.707 55.5 357.622 64.5 368.082 64.5 378.582 54 372.207 51 372.207 51 415.707 76.5 415.707 76.5 325.52 58.062 316.707"/><polygon class="cls-4" points="48 372.207 37.5 378.582 37.5 368.082 46.5 357.622 46.5 316.707 43.939 316.707 25.5 325.52 25.5 415.707 51 415.707 51 372.207 48 372.207"/><path d="M102,325.717v13.257L57,317.215v39.851l9,10.46v13.722l-12.42-7.541H48.42L36,381.248V367.526l9-10.46V317.233L0,339.367v-13.65l44.99-34.5L45,263.522c0-2.7,1.848-9.815,6.01-9.815S57,260.819,57,263.522l.01,27.695Zm-3,8.474V327.2L54.01,292.7,54,263.523c0-2.739-1.789-6.816-2.99-6.816S48,260.784,48,263.522L47.99,292.7,3,327.2v7.351l45-22.133v45.764l-9,10.46v7.278l8.58-5.21h6.84l8.58,5.21v-7.278l-9-10.46V312.433Z"/><path class="cls-5" d="M401.984,333.851l-72.836-8.735V299.162h20.861c9.241,0,32.858,18.106,35.521,20.171.077.062,7.024,5.543,13.182,11.4Zm-69.836-11.4,61.1,7.328c-4.96-4.448-9.515-8.042-9.57-8.086-7-5.429-26.719-19.535-33.674-19.535H332.148Zm-8.956,1.947-28.158-3.377.87-1.874c5.805-12.512,13.912-19.989,18.4-19.989h8.892Zm-23.664-5.859,20.664,2.478V302.162H314.3C311.988,302.162,305.262,307.132,299.528,318.543Zm86.948,73.031a19.284,19.284,0,1,1,19.285-19.284A19.3,19.3,0,0,1,386.476,391.574Zm0-35.568a16.284,16.284,0,1,0,16.285,16.284A16.3,16.3,0,0,0,386.476,356.006Zm-28.3,15.782,0,3.493H324.289l0-4.485h-.039a28.144,28.144,0,0,0-5.844-15.75v5.539a25.154,25.154,0,0,1,2.883,11.711l0,2.985h-.019v3h39.913v-3h-.007V372.29a25.277,25.277,0,0,1,40.81-19.965v-3.688a28.277,28.277,0,0,0-43.806,23.151Zm6.438,31.7h-12v3h12Zm0-12.377h-12v3h12Zm29.9-76.711c-1.284-1-31.574-24.382-42.86-24.382H299.82c-6.417,0-19.6,12.931-26.652,36.313-1.368,4.535-2.393,8.731-3.162,12.541a34.394,34.394,0,0,0,20.918,61.71v-.006h33.657a14.478,14.478,0,0,1-.115-1.776c0-.416.022-.822.055-1.224H290.9v0a31.389,31.389,0,0,1-21.749-54.022,105.617,105.617,0,0,0-1.453,17.827v11.735a5.209,5.209,0,0,0,5.2,5.206c1.884,0,3.692-.013,4.767-.024a19.2,19.2,0,1,0-.726-2.994c-1.07.009-2.53.018-4.041.018a2.206,2.206,0,0,1-2.2-2.206V361.384a105.112,105.112,0,0,1,2.027-20.8,31.234,31.234,0,0,1,18.2-5.833v-.01h.827a4.5,4.5,0,1,0,.006-3h-.851v.011a34.194,34.194,0,0,0-17.315,4.7c.657-2.894,1.461-5.987,2.449-9.263,7.139-23.67,20.07-34.179,23.78-34.179h51.838c8.512,0,32.46,17.117,41,23.736,9.82,8.2,25.381,22.98,25.381,27.774v28.555a2.214,2.214,0,0,1-2.209,2.209h-4.058v3h4.058a5.22,5.22,0,0,0,5.209-5.209V344.526C421.039,336.924,398.986,318.126,394.518,314.4Zm-98.532,41.608A16.284,16.284,0,1,1,279.7,372.29,16.3,16.3,0,0,1,295.986,356.006ZM363.118,397.3H352.64v3h10.478a1.5,1.5,0,0,0,0-3Z"/><path class="cls-1" d="M352.64,408.944H331.8c-4.113-.008-7.333-4.465-7.333-10.146s3.22-10.137,7.33-10.145H352.64Z"/><path class="cls-2" d="M331.507,408.923v-20.25c-3.97.212-7.041,4.58-7.041,10.125S327.536,408.708,331.507,408.923Z"/><path class="cls-3" d="M331.8,408.944h6.755V388.653H331.8c-.1,0-.189.014-.283.019v20.252C331.609,408.929,331.7,408.944,331.8,408.944Z"/><rect class="cls-4" x="338.55" y="388.652" width="7.042" height="20.292"/><path class="cls-7" d="M206.3,477.326h-3.928c-.788-4.706-1.729-9.313-2.8-13.7a145.716,145.716,0,0,0-4.411-14.864l-.013-.034h32.661a131.543,131.543,0,0,1,4.207,14.9c.654,2.945,1.239,5.963,1.732,9.033l.088.561c.258,1.537.481,3.074.69,4.609-.053-.167-.1-.335-.157-.5H223.625l-.115.382-1.606,5.314-1.055,3.489-1.208-3.489-1.841-5.314-6.017-17.372Zm29.564,16.095c-.157-4.841-.564-9.729-1.208-14.634H224.8l-1.281,4.235-1.606,5.314-.966,3.194-1.106-3.194L218,483.022l-1.841-5.314-4.327-12.493-4.03,12.493-.348,1.079h-4.83l-.014-.049c.795,4.976,1.384,9.914,1.775,14.683.429,5.246.609,10.273.526,14.9h30.574c.01-.086.02-.172.029-.256.171-1.585.266-3.019.314-4.207h0C235.974,500.411,235.979,496.927,235.865,493.421Z"/><path class="cls-2" d="M235.831,503.857h0c.143-3.445.148-6.929.034-10.435H204.388c.429,5.246.609,10.273.526,14.9h30.574c.01-.086.02-.172.029-.256C235.688,506.479,235.783,505.045,235.831,503.857Z"/><path class="cls-3" d="M204.388,493.421c-.391-4.769-.98-9.707-1.775-14.683l.014.049h4.83l.086-.264h8.9l1.558,4.5,1.841,5.314,1.106,3.194.966-3.194,1.606-5.314,1.281-4.235h9.854c.644,4.905,1.051,9.793,1.208,14.634Zm16.461-6.91,1.055-3.489,1.36-4.5h-5.182l1.559,4.5Z"/><path class="cls-4" d="M216.162,477.708l.283.815h-8.9l.262-.815,4.03-12.493Zm-9.861-.382,4.421-13.7H199.574c1.07,4.389,2.011,9,2.8,13.7H206.3Zm11.781,1.2h5.182l.246-.815.115-.382h10.746c.053.166.1.334.157.5h0c-.209-1.535-.432-3.072-.69-4.609l-.088-.561c-.493-3.07-1.078-6.088-1.732-9.033h-19.1l4.878,14.084Z"/><path d="M208.7,525.07h-3.251a1.061,1.061,0,0,1-1.058-1.058h0a1.061,1.061,0,0,1,1.058-1.058H208.7a1.061,1.061,0,0,1,1.058,1.058h0A1.061,1.061,0,0,1,208.7,525.07Zm7.371-1.058h0a1.061,1.061,0,0,0-1.058-1.058h-3.252a1.061,1.061,0,0,0-1.058,1.058h0a1.061,1.061,0,0,0,1.058,1.058h3.252A1.061,1.061,0,0,0,216.068,524.012Zm6.312,0h0a1.061,1.061,0,0,0-1.058-1.058H218.07a1.061,1.061,0,0,0-1.058,1.058h0a1.061,1.061,0,0,0,1.058,1.058h3.252A1.061,1.061,0,0,0,222.38,524.012Zm12.624,0h0a1.061,1.061,0,0,0-1.058-1.058H230.7a1.061,1.061,0,0,0-1.058,1.058h0a1.061,1.061,0,0,0,1.058,1.058h3.251A1.061,1.061,0,0,0,235,524.012Zm-6.312,0h0a1.061,1.061,0,0,0-1.058-1.058h-3.251a1.061,1.061,0,0,0-1.058,1.058h0a1.061,1.061,0,0,0,1.058,1.058h3.251A1.061,1.061,0,0,0,228.692,524.012Zm-18.759-2.906h0a1.062,1.062,0,0,0-1.058-1.058h-3.252a1.061,1.061,0,0,0-1.058,1.058h0a1.061,1.061,0,0,0,1.058,1.058h3.252A1.062,1.062,0,0,0,209.933,521.106Zm6.312,0h0a1.061,1.061,0,0,0-1.058-1.058h-3.252a1.061,1.061,0,0,0-1.058,1.058h0a1.061,1.061,0,0,0,1.058,1.058h3.252A1.061,1.061,0,0,0,216.245,521.106Zm6.312,0h0a1.061,1.061,0,0,0-1.058-1.058h-3.251a1.061,1.061,0,0,0-1.058,1.058h0a1.061,1.061,0,0,0,1.058,1.058H221.5A1.061,1.061,0,0,0,222.557,521.106Zm12.625,0h0a1.061,1.061,0,0,0-1.058-1.058h-3.252a1.061,1.061,0,0,0-1.058,1.058h0a1.061,1.061,0,0,0,1.058,1.058h3.252A1.061,1.061,0,0,0,235.182,521.106Zm-6.313,0h0a1.061,1.061,0,0,0-1.058-1.058H224.56a1.061,1.061,0,0,0-1.058,1.058h0a1.061,1.061,0,0,0,1.058,1.058h3.251A1.061,1.061,0,0,0,228.869,521.106ZM210.134,518.2h0a1.062,1.062,0,0,0-1.058-1.058h-3.252a1.062,1.062,0,0,0-1.058,1.058h0a1.061,1.061,0,0,0,1.058,1.058h3.252A1.061,1.061,0,0,0,210.134,518.2Zm6.312,0h0a1.062,1.062,0,0,0-1.058-1.058h-3.252a1.062,1.062,0,0,0-1.058,1.058h0a1.062,1.062,0,0,0,1.058,1.058h3.252A1.061,1.061,0,0,0,216.446,518.2Zm6.312,0h0a1.062,1.062,0,0,0-1.058-1.058h-3.251a1.062,1.062,0,0,0-1.058,1.058h0a1.061,1.061,0,0,0,1.058,1.058H221.7A1.061,1.061,0,0,0,222.758,518.2Zm12.625,0h0a1.062,1.062,0,0,0-1.058-1.058h-3.252a1.062,1.062,0,0,0-1.058,1.058h0a1.061,1.061,0,0,0,1.058,1.058h3.252A1.061,1.061,0,0,0,235.383,518.2Zm-25.143-2.906h0a1.061,1.061,0,0,0-1.058-1.058H205.93a1.061,1.061,0,0,0-1.058,1.058h0a1.061,1.061,0,0,0,1.058,1.058h3.252A1.061,1.061,0,0,0,210.24,515.293Zm6.312,0h0a1.061,1.061,0,0,0-1.058-1.058h-3.252a1.061,1.061,0,0,0-1.058,1.058h0a1.061,1.061,0,0,0,1.058,1.058h3.252A1.061,1.061,0,0,0,216.552,515.293Zm18.937,0h0a1.061,1.061,0,0,0-1.058-1.058h-3.252a1.061,1.061,0,0,0-1.058,1.058h0a1.061,1.061,0,0,0,1.058,1.058h3.252A1.061,1.061,0,0,0,235.489,515.293Zm-18.876-2.906h0a1.061,1.061,0,0,0-1.058-1.058H212.3a1.061,1.061,0,0,0-1.058,1.058h0a1.061,1.061,0,0,0,1.058,1.058h3.252A1.061,1.061,0,0,0,216.613,512.387Zm-9.156-33.6.086-.264.262-.815,4.03-12.493,4.327,12.493.283.815,1.558,4.5,1.841,5.314,1.106,3.194.966-3.194,1.606-5.314,1.281-4.235h10.025c-.1-.322-.2-.64-.3-.96h0c-.053-.167-.1-.335-.157-.5H223.625l-.115.382-.246.815-1.36,4.5-1.055,3.489-1.208-3.489-1.559-4.5-.282-.815-4.878-14.084-1.139-3.288-1.061,3.288-4.421,13.7H202.2c.14.469.28.938.418,1.412h0l.014.049ZM243.8,515.2c-2.456,31.563-19.506,38.2-26.722,39.587l-.118.019-18.008,2.4q-1.617.093-3.156.093c-12.371,0-21.06-4.5-27.187-14.009-6.829-9.978-12.84-30.288-16.048-54.281-3.253-28.089-8.409-73.746,27-78.016l.1-.011,17.713-1.467c20.347-.618,30.619,18.483,34.07,26.716,5.038,10.952,8.956,25.45,11,40.759l.086.666A171.774,171.774,0,0,1,243.8,515.2Zm-5.4-36.979s-4.343-27.8-10.774-40.308c-9.03-21.535-22.691-24.422-30.071-24.224l-17.492,1.452c-30.943,3.562-26.318,46.437-23.364,73.316,3.079,23.028,8.975,43.154,15.387,52.525,5.834,9.054,14.017,12.77,26.548,12.061l17.712-2.368c18.789-3.66,22.547-26.25,23.29-35.8v0A167.614,167.614,0,0,0,238.4,478.222Zm-69.787-5.158,9.46-1.265a1.5,1.5,0,0,0,1.281-1.677l-.121-.905a1.5,1.5,0,0,0-1.676-1.281l-9.461,1.265a1.5,1.5,0,0,0-1.281,1.676l.121.906A1.5,1.5,0,0,0,168.61,473.064Zm.659,8.056,9.461-1.265a1.5,1.5,0,0,0,1.281-1.676l-.121-.906a1.5,1.5,0,0,0-1.677-1.281l-9.46,1.265a1.5,1.5,0,0,0-1.281,1.677l.121.9A1.5,1.5,0,0,0,169.269,481.12Zm.894,8.061,9.46-1.265a1.5,1.5,0,0,0,1.281-1.677l-.121-.9a1.5,1.5,0,0,0-1.676-1.281l-9.461,1.265a1.5,1.5,0,0,0-1.281,1.676l.121.906A1.5,1.5,0,0,0,170.163,489.181Zm1.125,8.064,9.46-1.265a1.5,1.5,0,0,0,1.281-1.676l-.121-.906a1.5,1.5,0,0,0-1.676-1.281l-9.461,1.265a1.5,1.5,0,0,0-1.281,1.677l.121.9A1.5,1.5,0,0,0,171.288,497.245Zm1.434,8.07,9.46-1.265a1.5,1.5,0,0,0,1.281-1.677l-.121-.9a1.5,1.5,0,0,0-1.676-1.281l-9.461,1.265a1.5,1.5,0,0,0-1.281,1.676l.121.906A1.5,1.5,0,0,0,172.722,505.315Zm27.332,19.127c-.008.077-.017.155-.025.232l.011.016-.013.01c-1.1,10.647-4.007,23.415-11.618,24.433a6.878,6.878,0,0,1-.917.061c-5.283,0-10.635-6.072-15.54-17.663-4.785-11.307-8.637-26.64-10.848-43.173-4.1-30.683-1.859-64.177,10.379-65.813,7.666-1.026,13.873,10.725,17.723,20.764,4.19,10.924,7.593,25.134,9.582,40.011S201.227,512.8,200.054,524.442Zm-4.347,1.325c-5.736-8.6-10.354-22.848-12.463-38.624-2.2-16.423-1.332-31.956,2.295-41.716-.078-.206-.153-.419-.232-.622-5.356-13.967-10.49-18.489-13.27-18.121-6.139.82-11.694,24.47-6.794,61.121,2.163,16.174,5.911,31.125,10.555,42.1,4.932,11.657,9.457,15.437,12.057,15.091C190.517,544.638,194.1,539.354,195.707,525.767Zm.61-7.314a191.882,191.882,0,0,0-1.668-34.579,195.972,195.972,0,0,0-6.769-31.6c-2.017,9.045-2.231,21.347-.5,34.313C189.04,498.986,192.259,510.316,196.317,518.453Z"/><rect x="730.374" y="291.921" width="125.393" height="3" transform="translate(-50.368 353.983) rotate(-24.411)"/><rect x="485.284" y="236.549" width="3" height="125.393" transform="translate(35.466 649.7) rotate(-69.411)"/><rect x="791.57" y="359.329" width="3" height="125.393" transform="translate(81.017 969.79) rotate(-65.589)"/><rect x="424.088" y="415.702" width="125.393" height="3" transform="translate(-115.623 197.836) rotate(-20.589)"/><rect class="cls-7" x="827.744" y="621.632" width="13.384" height="29.841"/><rect class="cls-2" x="827.744" y="621.624" width="13.384" height="7.46"/><rect class="cls-3" x="827.744" y="629.08" width="13.384" height="7.46"/><rect class="cls-4" x="827.744" y="636.541" width="13.384" height="7.46"/><path d="M844.1,601.029H767.415v-3H841.1V586.692H767.415v-3H844.1Zm18.145,95.1H746.271v-6.881H862.243v-3H743.271v12.881H862.243Zm-41.69-38.83h-13.5v3h10.5v6h-10.5v3h13.5Zm-39.665,0h-13.5v3h10.5v6h-10.5v3h13.5Zm19.833,0h-13.5v3h10.5v6h-10.5v3h13.5Zm19.832-35.667h-13.5v3h10.5v6h-10.5v3h13.5Zm0,17.835h-13.5v3h10.5v6h-10.5v3h13.5ZM780.888,621.63h-13.5v3h10.5v6h-10.5v3h13.5Zm0,17.835h-13.5v3h10.5v6h-10.5v3h13.5Zm19.833-17.835h-13.5v3h10.5v6h-10.5v3h13.5Zm0,17.835h-13.5v3h10.5v6h-10.5v3h13.5Zm72.155,37.772v30.712H735.636v-3h134.24V680.237H735.636v-3h8.732V634.023c0-18.358,11.969-26.594,12.538-26.975V574.683h94.7v3h-91.7v29.354h91.7v.011c.569.381,12.538,8.617,12.538,26.975v43.214Zm-125.508,0H861.145V634.023c0-14.539-8.109-22.058-10.542-23.986H757.909c-2.433,1.928-10.541,9.447-10.541,23.986Z"/><path d="M377.162,541.862c0,19.688-28.32,33.979-28.32,33.979l0,0v-3.447l0,0c4.212-2.494,25.32-15.719,25.32-30.533,0-8.7-5.152-14.77-12.528-14.77-9.51,0-12.792,9.027-12.792,9.027l0-.01v-6.073l0,0c1.825-2.479,5.626-5.948,12.792-5.948C370.632,524.092,377.162,531.565,377.162,541.862Zm-24.349,63.193,17.139-19.094h39.665a6.007,6.007,0,0,0,6-6V516.752a6.007,6.007,0,0,0-6-6H288.006a6.006,6.006,0,0,0-6,6v63.209a6.007,6.007,0,0,0,6,6h39.706l17.137,19.094a5.264,5.264,0,0,0,7.964,0Zm56.8-91.3a3,3,0,0,1,3,3v63.209a3,3,0,0,1-3,3h-41l-18.032,20.091a2.319,2.319,0,0,1-3.5,0l-18.03-20.091H288.006a3,3,0,0,1-3-3V516.752a3,3,0,0,1,3-3Z"/><path class="cls-8" d="M348.839,530.036c-1.823-2.48-5.683-5.944-12.846-5.944-9,0-15.532,7.473-15.532,17.77,0,19.587,28.3,33.938,28.378,33.977Z"/><path class="cls-2" d="M348.839,562.9H331.057a79.667,79.667,0,0,0,17.782,12.94Z"/><path class="cls-3" d="M348.839,549.973h-26.77a38.668,38.668,0,0,0,9,12.937h17.771Z"/><path class="cls-4" d="M348.839,537.035H320.976a21.82,21.82,0,0,0,1.093,12.936h26.77Z"/><path d="M386.608,557.227v-3.609h3.746V540.636a9.419,9.419,0,0,1-1.777.658,7.319,7.319,0,0,1-1.914.279v-3.692a5.52,5.52,0,0,0,3.8-1.38h4.293v17.117h3.268v3.609Z"/><circle class="cls-7" cx="262.561" cy="150.238" r="66.247"/><path class="cls-2" d="M320.58,118.244a66.263,66.263,0,0,0-116.037,0Z"/><path class="cls-3" d="M204.543,118.244a65.94,65.94,0,0,0-8.229,31.994c0,.211.006.421.008.631H328.8c0-.21.008-.42.008-.631a65.94,65.94,0,0,0-8.229-31.994Z"/><path class="cls-4" d="M205.744,184.318H319.378a65.916,65.916,0,0,0,9.422-33.439H196.322A65.916,65.916,0,0,0,205.744,184.318Z"/><polygon class="cls-7" points="207.227 29.516 206.624 29.516 205.46 29.516 182.459 29.516 181.296 29.516 180.279 29.516 180.279 69.67 181.299 69.67 182.462 69.67 205.457 69.67 206.62 69.67 207.227 69.67 207.227 29.516"/><rect class="cls-2" x="180.279" y="29.516" width="26.948" height="10.037"/><rect class="cls-3" x="180.279" y="39.553" width="26.948" height="10.037"/><rect class="cls-4" x="180.279" y="49.593" width="26.948" height="10.037"/><path class="cls-7" d="M353.655,109.926v5.707l-6.188-2.017h-1.193l-6.187,2.017v-5.707l2.437-2.738V101l-3.892,1.665-8.22,3.51v11.605a3.091,3.091,0,0,0,3.345,2.915H359.9a3.231,3.231,0,0,0,3.428-2.97v-11.55l-8.227-3.518L351.217,101v6.187Z"/><path class="cls-2" d="M363.329,106.176v11.55a3.231,3.231,0,0,1-3.428,2.97h-4.8V102.658Z"/><polygon class="cls-3" points="351.217 101.001 355.102 102.658 355.102 120.696 346.867 120.696 346.874 114.808 346.874 113.616 347.467 113.616 353.655 115.633 353.655 109.926 351.217 107.188 351.217 101.001"/><polygon class="cls-4" points="342.524 101.001 342.524 107.188 340.087 109.926 340.087 115.633 346.274 113.616 346.867 113.616 346.874 114.808 346.874 120.696 338.632 120.696 338.632 102.666 342.524 101.001"/><polygon class="cls-7" points="186.175 242.903 186.175 242.633 186.175 242.113 186.175 231.831 186.175 231.311 186.175 230.857 160.769 230.857 160.769 231.313 160.769 231.833 160.769 242.112 160.769 242.632 160.769 242.903 186.175 242.903"/><rect class="cls-2" x="179.825" y="230.857" width="6.35" height="12.046"/><rect class="cls-3" x="173.474" y="230.857" width="6.351" height="12.046"/><rect class="cls-4" x="167.122" y="230.857" width="6.351" height="12.046"/><polygon class="cls-2" points="188.482 183.869 187.003 185.454 187.305 187.518 185.388 186.78 183.466 187.518 183.768 185.454 182.293 183.869 184.324 183.541 185.388 181.622 186.447 183.541 188.482 183.869"/><polygon class="cls-7" points="180.786 183.869 179.307 185.454 179.609 187.518 177.692 186.78 175.77 187.518 176.072 185.454 174.597 183.869 176.628 183.541 177.692 181.622 178.751 183.541 180.786 183.869"/><polygon class="cls-7" points="173.09 183.869 171.611 185.454 171.913 187.518 169.996 186.78 168.074 187.518 168.376 185.454 166.901 183.869 168.932 183.541 169.996 181.622 171.055 183.541 173.09 183.869"/><g class="cls-9"><polygon class="cls-2" points="180.786 183.869 179.307 185.454 179.609 187.518 177.692 186.78 175.77 187.518 176.072 185.454 174.597 183.869 176.628 183.541 177.692 181.622 178.751 183.541 180.786 183.869"/></g><g class="cls-10"><polygon class="cls-2" points="173.09 183.869 171.611 185.454 171.913 187.518 169.996 186.78 168.074 187.518 168.376 185.454 166.901 183.869 168.932 183.541 169.996 181.622 171.055 183.541 173.09 183.869"/></g><polygon class="cls-7" points="165.394 183.869 163.915 185.454 164.217 187.518 162.3 186.78 160.379 187.518 160.68 185.454 159.205 183.869 161.236 183.541 162.3 181.622 163.36 183.541 165.394 183.869"/><path class="cls-7" d="M315.264,224.774V236.05c0,.016,0,.031,0,.047v2.758h26.66V222.927c-2.872.374-6.312.808-10.731,1.359a87.986,87.986,0,0,1-10.807.711C317.856,225,316.121,224.862,315.264,224.774Z"/><path class="cls-2" d="M335.287,223.774c2.547-.321,4.721-.6,6.639-.847v15.928h-6.781V223.806Z"/><path class="cls-3" d="M328.517,224.581v14.274h6.628V223.806h-.114l-3.836.48Q329.842,224.454,328.517,224.581Z"/><path class="cls-4" d="M321.891,224.971v13.884h6.627V224.581C326.231,224.8,324.02,224.928,321.891,224.971Z"/><path d="M330.309,150.388a67.747,67.747,0,0,0-90.16-63.932l-.2-.123c-.05.081-.095.164-.144.244a67.748,67.748,0,1,0,90.5,63.811Zm-132.441,2.141h24a121.387,121.387,0,0,0,3.992,28.655H205.619A64.32,64.32,0,0,1,197.868,152.529Zm129.419-3h-24.6a121.311,121.311,0,0,0-3.6-28.654h21.077A64.309,64.309,0,0,1,327.287,149.529Zm-27.6,0H224.84a118.426,118.426,0,0,1,3.7-28.654h67.437A118.378,118.378,0,0,1,299.686,149.529Zm-77.848,0h-24a64.308,64.308,0,0,1,7.125-28.654h20.48A121.361,121.361,0,0,0,221.838,149.529Zm3.029,3h74.792a118.409,118.409,0,0,1-4.093,28.655H228.959A118.456,118.456,0,0,1,224.867,152.529Zm77.794,0h24.593a64.306,64.306,0,0,1-7.75,28.655H298.669A121.387,121.387,0,0,0,302.661,152.529Zm15.856-34.654H298.3a122.873,122.873,0,0,0-11.319-27.439A65.126,65.126,0,0,1,318.517,117.875ZM282.558,88.816a120.094,120.094,0,0,1,12.624,29.059H229.344a120.028,120.028,0,0,1,12.474-28.806,64.516,64.516,0,0,1,40.74-.253Zm-45.174,1.921a122.815,122.815,0,0,0-11.155,27.138H206.605A65.145,65.145,0,0,1,237.384,90.737Zm-30.025,93.447h19.326a122.914,122.914,0,0,0,10.908,25.939A65.143,65.143,0,0,1,207.359,184.184Zm34.681,27.6a120.052,120.052,0,0,1-12.222-27.6h64.89a120.137,120.137,0,0,1-12.371,27.852,64.549,64.549,0,0,1-40.3-.253Zm44.729-1.36a122.956,122.956,0,0,0,11.072-26.239h19.922A65.121,65.121,0,0,1,286.769,210.423Z"/><path d="M180.948,89.039h25.609a7.9,7.9,0,0,0,7.891-7.89V27.877a7.9,7.9,0,0,0-7.891-7.89H180.948a7.9,7.9,0,0,0-7.89,7.89V81.149A7.9,7.9,0,0,0,180.948,89.039Zm-4.89-61.162a4.9,4.9,0,0,1,4.89-4.89h25.609a4.9,4.9,0,0,1,4.891,4.89V81.149a4.9,4.9,0,0,1-4.891,4.89H180.948a4.9,4.9,0,0,1-4.89-4.89Z"/><path d="M191,83.536h5.5a5.134,5.134,0,1,0,0-10.268H191a5.134,5.134,0,0,0,0,10.268Zm0-7.268h5.5a2.134,2.134,0,1,1,0,4.268H191a2.134,2.134,0,0,1,0-4.268Z"/><path d="M342.421,101.2v6.187l-2.437,2.738v5.707l6.187-2.017h1.193l6.187,2.017v-5.707l-2.437-2.738V101.2L355,102.853l8.227,3.518V51.883a3.1,3.1,0,0,0-3.172-3.015H333.489a3.107,3.107,0,0,0-3.18,3.015v54.488l8.22-3.51ZM333.3,72.9h3.074v-3H333.3l0-17.965a.235.235,0,0,1,.195-.068h26.565c.112,0,.172.053.172.023V69.9h-2.855v3h2.855v23.24l-8.835-5.828V83.646c0-2.963-1.725-4.733-4.627-4.733-3.615,0-4.373,2.573-4.373,4.733v6.66l-9.09,5.865Zm.012,26.84,12.082-7.8v-8.3c0-1.47.21-1.733,1.373-1.733,1.23,0,1.627.42,1.627,1.733v8.28l11.835,7.807v2.093l-12.112-5.175v11.88l2.437,2.73v.427l-2.707-.877H345.7l-2.715.877v-.427l2.437-2.73V96.651l-12.112,5.175Z"/><rect x="339.35" y="57.887" width="3" height="6"/><rect x="351.371" y="57.887" width="3" height="6"/><rect x="345.267" y="57.887" width="3" height="6"/><rect x="339.371" y="69.901" width="3" height="3"/><rect x="345.371" y="69.901" width="3" height="3"/><rect x="351.371" y="69.901" width="3" height="3"/><path d="M185.122,190.2H174.168v10.954h10.954Zm-3,7.954h-4.954V193.2h4.954Z"/><path d="M171.711,190.2H160.758v10.954h10.953Zm-3,7.954h-4.953V193.2h4.953Z"/><path d="M185.122,203.609H174.168v10.953h10.954Zm-3,7.953h-4.954v-4.953h4.954Z"/><path d="M171.711,203.609H160.758v10.953h10.953Zm-3,7.953h-4.953v-4.953h4.953Z"/><path d="M185.122,217.02H174.168v10.953h10.954Zm-3,7.953h-4.954V220.02h4.954Z"/><path d="M171.711,217.02H160.758v10.953h10.953Zm-3,7.953h-4.953V220.02h4.953Z"/><path d="M189.016,168.531H156.147v7.8h-3.419V245.66h41.314V176.334h-5.026Zm-29.869,3h26.869v4.636H159.147Zm31.9,71.129H155.728V179.334h35.314Z"/><path d="M367.292,217.905l-18.6-4.521c-1.289-.387-19.519-5.511-39.911,7.38-3.107.42-19.336,2.813-23.448,7.455l-.377.426v11.71l10.608,0-.126-1.616a11.746,11.746,0,0,1,.223-2.84,8.975,8.975,0,0,1,3.991-5.8,8.651,8.651,0,0,1,6.788-1.132,8.281,8.281,0,0,1,2.866,1.345,8.8,8.8,0,0,1,3.352,5.069,10.179,10.179,0,0,1,.247,3.339l-.155,1.642h44.368l1.757-.007-.277-1.736c-.008-.044-.67-4.441,2.376-7.351a8.92,8.92,0,0,1,8.453-2.17c1.9.517,5.186,2.232,5.869,7.914l.238,1.973,6.134-2.577v-18.5Zm11.373,16.5-.734.309c-1.457-6.147-5.792-8-7.718-8.52a11.934,11.934,0,0,0-11.315,2.9,11.47,11.47,0,0,0-3.372,8.263H315.939a13.569,13.569,0,0,0-.367-2.682,11.811,11.811,0,0,0-4.5-6.794,11.258,11.258,0,0,0-3.9-1.829,11.619,11.619,0,0,0-9.123,1.509,11.983,11.983,0,0,0-5.324,7.754,15.8,15.8,0,0,0-.264,2.042h-4.5v-7.519c3.645-3.205,16.655-5.506,21.544-6.141l.332-.043.283-.181c19.595-12.535,37.562-7.261,37.739-7.206l19.082,4.64h11.732Z"/><path d="M354.594,218.456h0c-5.328-1.689-23.957-6.408-39.938,3.73a1.915,1.915,0,0,0,.97,3.533c.869.023,2.132.046,3.718.046a166.22,166.22,0,0,0,35.1-3.618,1.914,1.914,0,0,0,.154-3.691Zm-16.87.415c.286,0,.564.01.846.014l.708,2.754a179.244,179.244,0,0,1-19.511,1.126A40.93,40.93,0,0,1,337.724,218.871Zm4.556,2.4-.574-2.234a56.165,56.165,0,0,1,7.579,1.117C346.921,220.592,344.575,220.959,342.28,221.267Z"/><path d="M304.281,230.218a7.579,7.579,0,1,0,7.578,7.578A7.588,7.588,0,0,0,304.281,230.218Zm0,12.157a4.579,4.579,0,1,1,4.578-4.579A4.585,4.585,0,0,1,304.281,242.375Z"/><path d="M366.835,230.5a7.578,7.578,0,1,0,7.579,7.578A7.587,7.587,0,0,0,366.835,230.5Zm0,12.156a4.578,4.578,0,1,1,4.579-4.578A4.583,4.583,0,0,1,366.835,242.66Z"/><circle cx="252.352" cy="60.884" r="1.5"/><circle cx="237.352" cy="60.884" r="1.5"/><circle cx="267.352" cy="60.884" r="1.5"/><circle cx="244.852" cy="60.884" r="1.5"/><circle cx="319.852" cy="60.884" r="1.5"/><circle cx="312.352" cy="60.884" r="1.5"/><circle cx="304.852" cy="60.884" r="1.5"/><circle cx="229.852" cy="60.884" r="1.5"/><circle cx="274.852" cy="60.884" r="1.5"/><circle cx="297.352" cy="60.884" r="1.5"/><circle cx="282.352" cy="60.884" r="1.5"/><circle cx="289.852" cy="60.884" r="1.5"/><circle cx="259.852" cy="60.884" r="1.5"/><circle cx="222.352" cy="60.884" r="1.5"/><circle cx="167.294" cy="137.459" r="1.5"/><circle cx="167.294" cy="129.959" r="1.5"/><circle cx="167.294" cy="122.459" r="1.5"/><circle cx="167.294" cy="144.959" r="1.5"/><circle cx="167.294" cy="152.459" r="1.5"/><circle cx="167.294" cy="159.959" r="1.5"/><circle cx="167.294" cy="107.459" r="1.5"/><circle cx="167.294" cy="99.959" r="1.5"/><circle cx="167.294" cy="114.959" r="1.5"/><circle cx="167.294" cy="92.459" r="1.5"/><circle cx="223.387" cy="230.856" r="1.5"/><circle cx="260.887" cy="230.856" r="1.5"/><circle cx="275.887" cy="230.856" r="1.5"/><circle cx="230.887" cy="230.856" r="1.5"/><circle cx="208.387" cy="230.856" r="1.5"/><circle cx="253.387" cy="230.856" r="1.5"/><circle cx="238.387" cy="230.856" r="1.5"/><circle cx="245.887" cy="230.856" r="1.5"/><circle cx="215.887" cy="230.856" r="1.5"/><circle cx="200.887" cy="230.856" r="1.5"/><circle cx="268.387" cy="230.856" r="1.5"/><circle cx="346.875" cy="135.823" r="1.5"/><circle cx="346.875" cy="143.323" r="1.5"/><circle cx="346.875" cy="128.323" r="1.5"/><circle cx="346.875" cy="150.823" r="1.5"/><circle cx="346.875" cy="158.323" r="1.5"/><circle cx="346.875" cy="195.823" r="1.5"/><circle cx="346.875" cy="203.323" r="1.5"/><circle cx="346.875" cy="188.323" r="1.5"/><circle cx="346.875" cy="180.823" r="1.5"/><circle cx="346.875" cy="165.823" r="1.5"/><circle cx="346.875" cy="173.323" r="1.5"/><path class="cls-1" d="M530.478,95.526c0,2.947-9.552,6.674-26.25,8.8a233.8,233.8,0,0,1-29.25,1.7h0a233.81,233.81,0,0,1-29.25-1.7c-16.7-2.128-26.25-5.855-26.25-8.8h-3v24c0,4.106,6.017,7.455,17.886,9.953,3.455.727,7.274,1.35,11.364,1.862a239.687,239.687,0,0,0,29.25,1.685h0a239.663,239.663,0,0,0,29.25-1.685c4.09-.512,7.908-1.135,11.364-1.862,11.868-2.5,17.886-5.847,17.886-9.953v-24Z"/><path class="cls-2" d="M530.478,95.526c0,2.947-9.552,6.674-26.25,8.8v27.013c4.09-.512,7.908-1.135,11.364-1.862,11.868-2.5,17.886-5.847,17.886-9.953v-24Z"/><path class="cls-3" d="M474.978,106.026v27a239.663,239.663,0,0,0,29.25-1.685V104.328A233.8,233.8,0,0,1,474.978,106.026Z"/><path class="cls-4" d="M474.978,106.026a233.81,233.81,0,0,1-29.25-1.7v27.013a239.687,239.687,0,0,0,29.25,1.685h0v-27Z"/><path d="M515.592,61.456c-10.865-2.287-25.288-3.546-40.614-3.546s-29.75,1.259-40.614,3.546c-11.869,2.5-17.886,5.848-17.886,9.954V95.526c0,4.106,6.017,7.455,17.886,9.953,10.864,2.287,25.288,3.547,40.614,3.547s29.749-1.26,40.614-3.547c11.868-2.5,17.886-5.847,17.886-9.953V71.41C533.478,67.3,527.46,63.955,515.592,61.456Zm-40.614-.546c34.386,0,55.5,6.115,55.5,10.5s-21.114,10.5-55.5,10.5-55.5-6.116-55.5-10.5S440.592,60.91,474.978,60.91Zm55.5,30.14v4.476c0,4.384-21.114,10.5-55.5,10.5s-55.5-6.116-55.5-10.5V76.041q4.334,3.088,14.886,5.322c10.864,2.287,25.288,3.547,40.614,3.547s29.749-1.26,40.614-3.547q10.552-2.221,14.886-5.322V91.05Z"/><path d="M435.415,90.633c-2.442-.5-4.67-1.054-6.622-1.636a1.5,1.5,0,1,0-.858,2.874c2.035.608,4.348,1.18,6.875,1.7a1.5,1.5,0,1,0,.605-2.939Z"/></g></g></svg>