<svg xmlns="http://www.w3.org/2000/svg" viewBox="0 0 1112.752 163.982"><defs><style>.cls-1{fill:#e35500;}.cls-2,.cls-3,.cls-4{fill:#efab1f;}.cls-3{opacity:0.7;}.cls-4{opacity:0.4;}.cls-5{fill:#148fcf;}.cls-6{fill:#4fb81c;}</style></defs><g id="Ebene_2" data-name="Ebene 2"><g id="Layer_1" data-name="Layer 1"><path d="M425.225,156.586V142.859h1.982v13.367a8.269,8.269,0,0,0,.321,2.354,4.932,4.932,0,0,0,1.007,1.87,4.727,4.727,0,0,0,1.738,1.237,6.373,6.373,0,0,0,2.5.45,6.441,6.441,0,0,0,2.485-.437,4.629,4.629,0,0,0,2.752-3.051,8.182,8.182,0,0,0,.321-2.355V142.859h1.982v13.672a8.66,8.66,0,0,1-.478,2.9,6.753,6.753,0,0,1-1.417,2.365,6.439,6.439,0,0,1-2.367,1.586,9.825,9.825,0,0,1-6.618,0,6.548,6.548,0,0,1-2.349-1.572,6.476,6.476,0,0,1-1.4-2.338A8.744,8.744,0,0,1,425.225,156.586Z" transform="translate(-1.627)"/><path d="M445.021,163.586V148.834h1.928v2.324a10.9,10.9,0,0,1,2.468-1.839,6.458,6.458,0,0,1,3.165-.772,4.353,4.353,0,0,1,3.288,1.148,4.475,4.475,0,0,1,1.1,3.227v10.664h-1.928V153.277a3.287,3.287,0,0,0-.711-2.317,2.923,2.923,0,0,0-2.228-.759,5.413,5.413,0,0,0-2.66.684,12.21,12.21,0,0,0-2.5,1.887v10.814Z" transform="translate(-1.627)"/><path d="M460.252,161.247l1.23-1.122a6.589,6.589,0,0,0,1.949,1.56,5.648,5.648,0,0,0,2.645.575,5.093,5.093,0,0,0,2.871-.665,2.189,2.189,0,0,0,.971-1.926,2.029,2.029,0,0,0-.957-1.823,10.492,10.492,0,0,0-3.1-1.125l-2.212-.689a5.171,5.171,0,0,1-1.629-.8,3.18,3.18,0,0,1-.964-1.161,3.8,3.8,0,0,1-.322-1.652,3.415,3.415,0,0,1,.335-1.484,3.629,3.629,0,0,1,.978-1.239,4.813,4.813,0,0,1,1.565-.841,6.7,6.7,0,0,1,2.126-.308,7.845,7.845,0,0,1,3.2.574,7.517,7.517,0,0,1,2.269,1.56l-1.094,1.286a6.514,6.514,0,0,0-1.9-1.327,5.664,5.664,0,0,0-2.406-.493,5.185,5.185,0,0,0-1.477.181,2.844,2.844,0,0,0-.977.486,1.987,1.987,0,0,0-.561.686,1.832,1.832,0,0,0-.184.8,1.789,1.789,0,0,0,.832,1.6,9,9,0,0,0,2.77.99l2.416.736a5.545,5.545,0,0,1,1.769.869,3.461,3.461,0,0,1,1.055,1.289,4.426,4.426,0,0,1,.345,1.864,3.616,3.616,0,0,1-.437,1.793,4.1,4.1,0,0,1-1.19,1.33,5.33,5.33,0,0,1-1.805.818,9.189,9.189,0,0,1-2.31.272,7.732,7.732,0,0,1-3.466-.734A6.331,6.331,0,0,1,460.252,161.247Z" transform="translate(-1.627)"/><path d="M473.609,150.488v-1.654h2.584v-5.291h1.928v5.291h3.828v1.654h-3.828v9.267a2.9,2.9,0,0,0,.479,1.8,2.223,2.223,0,0,0,1.845.623h.827a2.462,2.462,0,0,0,.718-.1v1.531c-.227.036-.519.074-.875.11a10.308,10.308,0,0,1-1.039.054,4.251,4.251,0,0,1-3-.854,3.743,3.743,0,0,1-.882-2.782v-9.653Z" transform="translate(-1.627)"/><path d="M485.408,163.586V148.834h1.928v2.937h.055a7.49,7.49,0,0,1,2.276-2.308,6.423,6.423,0,0,1,3.575-.916h.342l-.191,1.818h-.288a1.323,1.323,0,0,1-.191-.013.893.893,0,0,0-.109-.014,5.506,5.506,0,0,0-3.213.955,7,7,0,0,0-2.256,2.715v9.578Z" transform="translate(-1.627)"/><path d="M496.332,159.5V148.834h1.928v10.322a3.352,3.352,0,0,0,.7,2.331,2.915,2.915,0,0,0,2.242.759,5.211,5.211,0,0,0,2.646-.7,13.709,13.709,0,0,0,2.481-1.88V148.834h1.928v14.752h-1.928v-2.324a11.224,11.224,0,0,1-2.468,1.852,6.29,6.29,0,0,1-3.137.786,4.313,4.313,0,0,1-3.3-1.162A4.555,4.555,0,0,1,496.332,159.5Z" transform="translate(-1.627)"/><path d="M511.891,156.217a9.513,9.513,0,0,1,.556-3.425,7.029,7.029,0,0,1,1.477-2.393,5.736,5.736,0,0,1,2.116-1.4,6.823,6.823,0,0,1,2.427-.451,6.25,6.25,0,0,1,2.085.321,5.046,5.046,0,0,1,1.579.882,6.194,6.194,0,0,1,1.162,1.292,8.387,8.387,0,0,1,.82,1.538l-1.64.725a6.014,6.014,0,0,0-1.566-2.3,3.712,3.712,0,0,0-2.5-.8,4.7,4.7,0,0,0-1.647.308,3.8,3.8,0,0,0-1.484,1.025,5.369,5.369,0,0,0-1.059,1.86,8.444,8.444,0,0,0-.4,2.8,8.729,8.729,0,0,0,.349,2.584,5.817,5.817,0,0,0,.95,1.886,4.142,4.142,0,0,0,1.429,1.176,4,4,0,0,0,1.8.41,3.927,3.927,0,0,0,2.5-.745,6.648,6.648,0,0,0,1.743-2.4l1.559.67a11.151,11.151,0,0,1-.985,1.7,5.75,5.75,0,0,1-1.264,1.305,5.651,5.651,0,0,1-1.614.828,6.442,6.442,0,0,1-2.016.293,6,6,0,0,1-2.42-.5A5.826,5.826,0,0,1,513.8,161.9a7.3,7.3,0,0,1-1.4-2.406A9.6,9.6,0,0,1,511.891,156.217Z" transform="translate(-1.627)"/><path d="M526.027,150.488v-1.654h2.584v-5.291h1.928v5.291h3.828v1.654h-3.828v9.267a2.9,2.9,0,0,0,.479,1.8,2.223,2.223,0,0,0,1.845.623h.827a2.462,2.462,0,0,0,.718-.1v1.531c-.227.036-.519.074-.875.11a10.308,10.308,0,0,1-1.039.054,4.251,4.251,0,0,1-3-.854,3.743,3.743,0,0,1-.882-2.782v-9.653Z" transform="translate(-1.627)"/><path d="M537.689,159.5V148.834h1.928v10.322a3.357,3.357,0,0,0,.7,2.331,2.916,2.916,0,0,0,2.243.759,5.2,5.2,0,0,0,2.645-.7,13.679,13.679,0,0,0,2.482-1.88V148.834h1.927v14.752h-1.927v-2.324a11.248,11.248,0,0,1-2.468,1.852,6.3,6.3,0,0,1-3.138.786,4.315,4.315,0,0,1-3.3-1.162A4.56,4.56,0,0,1,537.689,159.5Z" transform="translate(-1.627)"/><path d="M554.1,163.586V148.834h1.927v2.937h.055a7.5,7.5,0,0,1,2.276-2.308,6.425,6.425,0,0,1,3.576-.916h.341l-.191,1.818h-.287a1.313,1.313,0,0,1-.191-.013.878.878,0,0,0-.11-.014,5.508,5.508,0,0,0-3.213.955,7,7,0,0,0-2.256,2.715v9.578Z" transform="translate(-1.627)"/><path d="M563.5,156.19a9.158,9.158,0,0,1,.574-3.4,6.991,6.991,0,0,1,1.5-2.379,6.2,6.2,0,0,1,2.071-1.4,6.1,6.1,0,0,1,2.318-.465,5.807,5.807,0,0,1,2.4.492,5.222,5.222,0,0,1,1.9,1.456,7.16,7.16,0,0,1,1.264,2.406,10.809,10.809,0,0,1,.465,3.316v.369H565.43a7.235,7.235,0,0,0,.376,2.432,5.555,5.555,0,0,0,1,1.786,4.245,4.245,0,0,0,3.267,1.5,4.8,4.8,0,0,0,2.7-.694,6.713,6.713,0,0,0,1.894-2.012l1.2.961a7.764,7.764,0,0,1-2.4,2.447,6.45,6.45,0,0,1-3.521.9,6.316,6.316,0,0,1-2.461-.492,5.659,5.659,0,0,1-2.055-1.476,7.511,7.511,0,0,1-1.408-2.407A9.566,9.566,0,0,1,563.5,156.19Zm1.955-1.149h8.654a9.369,9.369,0,0,0-.376-1.932,4.94,4.94,0,0,0-.793-1.567,3.482,3.482,0,0,0-1.271-1.031,3.98,3.98,0,0,0-1.743-.364,4.118,4.118,0,0,0-1.545.3,4.026,4.026,0,0,0-1.347.9,5.1,5.1,0,0,0-1.025,1.519A7.052,7.052,0,0,0,565.457,155.041Z" transform="translate(-1.627)"/><path d="M578.814,156.2a10.691,10.691,0,0,1,.478-3.361,6.766,6.766,0,0,1,1.318-2.386,5.4,5.4,0,0,1,1.987-1.425,6.339,6.339,0,0,1,2.459-.477,5.667,5.667,0,0,1,2.67.648,7.352,7.352,0,0,1,2.094,1.622v-7.958h1.928v17.09a20.755,20.755,0,0,0,.1,2.208,4.887,4.887,0,0,0,.342,1.429H590.16a6.585,6.585,0,0,1-.238-.991,6.961,6.961,0,0,1-.1-1.184,9.024,9.024,0,0,1-2.081,1.706,5.433,5.433,0,0,1-2.848.715,6.207,6.207,0,0,1-2.376-.459,5.02,5.02,0,0,1-1.932-1.412,7.1,7.1,0,0,1-1.291-2.386A10.721,10.721,0,0,1,578.814,156.2Zm1.928.028a8.92,8.92,0,0,0,.349,2.641,5.363,5.363,0,0,0,.966,1.862,3.866,3.866,0,0,0,1.43,1.095,4.266,4.266,0,0,0,1.733.356,4.651,4.651,0,0,0,2.458-.651,10.52,10.52,0,0,0,2.142-1.772v-7.172a9.5,9.5,0,0,0-2.2-1.807,4.769,4.769,0,0,0-2.4-.629,4.454,4.454,0,0,0-1.8.362A3.66,3.66,0,0,0,582,151.618a5.52,5.52,0,0,0-.925,1.9A9.754,9.754,0,0,0,580.742,156.224Z" transform="translate(-1.627)"/><path d="M601.742,156.2a10.662,10.662,0,0,1,.478-3.361,6.766,6.766,0,0,1,1.318-2.386,5.406,5.406,0,0,1,1.986-1.425,6.343,6.343,0,0,1,2.459-.477,5.665,5.665,0,0,1,2.67.648,7.343,7.343,0,0,1,2.1,1.622v-7.958h1.928v17.09a21.063,21.063,0,0,0,.095,2.208,4.952,4.952,0,0,0,.342,1.429h-2.025a6.585,6.585,0,0,1-.238-.991,6.961,6.961,0,0,1-.1-1.184,9.045,9.045,0,0,1-2.081,1.706,5.434,5.434,0,0,1-2.849.715,6.207,6.207,0,0,1-2.376-.459,5.017,5.017,0,0,1-1.931-1.412,7.1,7.1,0,0,1-1.291-2.386A10.692,10.692,0,0,1,601.742,156.2Zm1.928.028a8.92,8.92,0,0,0,.349,2.641,5.362,5.362,0,0,0,.965,1.862,3.877,3.877,0,0,0,1.431,1.095,4.265,4.265,0,0,0,1.732.356,4.649,4.649,0,0,0,2.458-.651,10.524,10.524,0,0,0,2.143-1.772v-7.172a9.5,9.5,0,0,0-2.2-1.807,4.773,4.773,0,0,0-2.4-.629,4.449,4.449,0,0,0-1.8.362,3.653,3.653,0,0,0-1.417,1.109,5.52,5.52,0,0,0-.925,1.9A9.716,9.716,0,0,0,603.67,156.224Z" transform="translate(-1.627)"/><path d="M618.258,160.131a4.2,4.2,0,0,1,.506-2.027,5,5,0,0,1,1.681-1.72,12.522,12.522,0,0,1,3.083-1.4,30.63,30.63,0,0,1,4.724-1.037v-.757a3.081,3.081,0,0,0-.765-2.292,3.043,3.043,0,0,0-2.224-.751,6.571,6.571,0,0,0-3.046.661,12.466,12.466,0,0,0-2.458,1.679l-1.047-1.212a11.826,11.826,0,0,1,2.94-1.974,8.807,8.807,0,0,1,3.788-.754,4.657,4.657,0,0,1,3.617,1.243,4.965,4.965,0,0,1,1.123,3.455v6.695a21.155,21.155,0,0,0,.1,2.213,5.755,5.755,0,0,0,.315,1.433H628.6q-.138-.482-.241-.97a5.589,5.589,0,0,1-.1-1.147,9.226,9.226,0,0,1-2.709,1.772,8.033,8.033,0,0,1-3.105.591,4.465,4.465,0,0,1-3.084-.98A3.462,3.462,0,0,1,618.258,160.131Zm1.928-.245a2.149,2.149,0,0,0,.71,1.76,2.992,2.992,0,0,0,1.964.586,6.892,6.892,0,0,0,2.908-.614,9.11,9.11,0,0,0,2.484-1.7v-4.585a30,30,0,0,0-3.924.88,10.939,10.939,0,0,0-2.471,1.058,3.691,3.691,0,0,0-1.3,1.228A2.76,2.76,0,0,0,620.186,159.886Z" transform="translate(-1.627)"/><path d="M632.9,150.488v-1.654h2.584v-5.291h1.928v5.291h3.828v1.654h-3.828v9.267a2.9,2.9,0,0,0,.479,1.8,2.223,2.223,0,0,0,1.845.623h.827a2.462,2.462,0,0,0,.718-.1v1.531c-.227.036-.519.074-.875.11a10.308,10.308,0,0,1-1.039.054,4.251,4.251,0,0,1-3-.854,3.743,3.743,0,0,1-.882-2.782v-9.653Z" transform="translate(-1.627)"/><path d="M643.688,160.131a4.2,4.2,0,0,1,.5-2.027,5,5,0,0,1,1.682-1.72,12.522,12.522,0,0,1,3.083-1.4,30.6,30.6,0,0,1,4.724-1.037v-.757a3.081,3.081,0,0,0-.765-2.292,3.045,3.045,0,0,0-2.225-.751,6.576,6.576,0,0,0-3.046.661,12.525,12.525,0,0,0-2.458,1.679l-1.046-1.212a11.826,11.826,0,0,1,2.94-1.974,8.8,8.8,0,0,1,3.788-.754,4.656,4.656,0,0,1,3.616,1.243,4.965,4.965,0,0,1,1.123,3.455v6.695a21.117,21.117,0,0,0,.1,2.213,5.755,5.755,0,0,0,.315,1.433h-2q-.136-.482-.24-.97a5.589,5.589,0,0,1-.1-1.147,9.226,9.226,0,0,1-2.709,1.772,8.041,8.041,0,0,1-3.106.591,4.464,4.464,0,0,1-3.083-.98A3.462,3.462,0,0,1,643.688,160.131Zm1.927-.245a2.152,2.152,0,0,0,.71,1.76,3,3,0,0,0,1.965.586,6.884,6.884,0,0,0,2.907-.614,9.1,9.1,0,0,0,2.485-1.7v-4.585a30,30,0,0,0-3.924.88,10.919,10.919,0,0,0-2.471,1.058,3.7,3.7,0,0,0-1.3,1.228A2.76,2.76,0,0,0,645.615,159.886Z" transform="translate(-1.627)"/><path d="M843.566,158.492l1.791-.641a6.18,6.18,0,0,0,2.205,3.276,6.117,6.117,0,0,0,3.681,1.092,6.3,6.3,0,0,0,3.744-1,3.206,3.206,0,0,0,1.39-2.758,4.215,4.215,0,0,0-.226-1.434,2.813,2.813,0,0,0-.842-1.16,7.223,7.223,0,0,0-1.67-1.023,24.048,24.048,0,0,0-2.71-1.025q-1.673-.531-2.93-1.044a8.054,8.054,0,0,1-2.1-1.2,4.515,4.515,0,0,1-1.252-1.584,5.152,5.152,0,0,1-.415-2.177,4.677,4.677,0,0,1,.477-2.093,5.26,5.26,0,0,1,1.322-1.689,6.356,6.356,0,0,1,2.024-1.139,7.681,7.681,0,0,1,2.6-.419,9.083,9.083,0,0,1,2.615.35,6.712,6.712,0,0,1,2.032.983,6.435,6.435,0,0,1,1.492,1.517,7.621,7.621,0,0,1,.978,1.93l-1.681.778a5.712,5.712,0,0,0-2.143-2.873,6.749,6.749,0,0,0-5.189-.6,4.54,4.54,0,0,0-1.4.709,3.011,3.011,0,0,0-1.191,2.41,3.547,3.547,0,0,0,.28,1.474,2.949,2.949,0,0,0,.959,1.119,7.833,7.833,0,0,0,1.766.942q1.089.438,2.745.956a22.694,22.694,0,0,1,2.833,1.064,8.1,8.1,0,0,1,2,1.277,4.742,4.742,0,0,1,1.2,1.638,5.4,5.4,0,0,1,.4,2.177,4.979,4.979,0,0,1-.547,2.336,5.266,5.266,0,0,1-1.5,1.776,7.216,7.216,0,0,1-2.285,1.132,9.688,9.688,0,0,1-2.867.41,7.978,7.978,0,0,1-4.9-1.467A7.349,7.349,0,0,1,843.566,158.492Z" transform="translate(-1.627)"/><path d="M861.23,156.19a9.157,9.157,0,0,1,.575-3.4,6.976,6.976,0,0,1,1.5-2.379,6.193,6.193,0,0,1,2.071-1.4,6.092,6.092,0,0,1,2.317-.465,5.815,5.815,0,0,1,2.4.492A5.219,5.219,0,0,1,872,150.5a7.18,7.18,0,0,1,1.265,2.406,10.84,10.84,0,0,1,.465,3.316v.369H863.158a7.235,7.235,0,0,0,.376,2.432,5.555,5.555,0,0,0,1,1.786,4.25,4.25,0,0,0,3.268,1.5,4.8,4.8,0,0,0,2.7-.694A6.711,6.711,0,0,0,872.4,159.6l1.2.961A7.777,7.777,0,0,1,871.2,163a6.444,6.444,0,0,1-3.52.9,6.313,6.313,0,0,1-2.461-.492,5.65,5.65,0,0,1-2.055-1.476,7.474,7.474,0,0,1-1.408-2.407A9.542,9.542,0,0,1,861.23,156.19Zm1.956-1.149h8.654a9.5,9.5,0,0,0-.376-1.932,4.96,4.96,0,0,0-.793-1.567,3.493,3.493,0,0,0-1.272-1.031,3.976,3.976,0,0,0-1.743-.364,4.122,4.122,0,0,0-1.545.3,4.022,4.022,0,0,0-1.346.9,5.1,5.1,0,0,0-1.026,1.519A7.053,7.053,0,0,0,863.186,155.041Z" transform="translate(-1.627)"/><path d="M877.363,163.586V148.834h1.928v2.324a12.38,12.38,0,0,1,2.427-1.852,5.8,5.8,0,0,1,2.973-.759,4.4,4.4,0,0,1,2.8.745,3.685,3.685,0,0,1,1.248,1.921,13.737,13.737,0,0,1,2.553-1.88,6.011,6.011,0,0,1,3.033-.786,4.051,4.051,0,0,1,3.264,1.176,4.805,4.805,0,0,1,.992,3.2v10.664h-1.928V153.277a3.7,3.7,0,0,0-.6-2.317,2.648,2.648,0,0,0-2.178-.759,4.868,4.868,0,0,0-2.507.684,13.448,13.448,0,0,0-2.424,1.887v10.814h-1.927V153.277a3.7,3.7,0,0,0-.6-2.317,2.657,2.657,0,0,0-2.187-.759,4.871,4.871,0,0,0-2.516.684,13.467,13.467,0,0,0-2.42,1.887v10.814Z" transform="translate(-1.627)"/><path d="M903.039,145.416v-2.078h2.051v2.078Zm.055,18.17V148.834h1.927v14.752Z" transform="translate(-1.627)"/><path d="M909.26,155.629v-1.654h6.3v1.654Z" transform="translate(-1.627)"/><path d="M918.611,161.247l1.231-1.122a6.585,6.585,0,0,0,1.948,1.56,5.649,5.649,0,0,0,2.646.575,5.1,5.1,0,0,0,2.871-.665,2.19,2.19,0,0,0,.97-1.926,2.029,2.029,0,0,0-.957-1.823,10.483,10.483,0,0,0-3.1-1.125L922,156.032a5.193,5.193,0,0,1-1.629-.8,3.18,3.18,0,0,1-.964-1.161,3.8,3.8,0,0,1-.321-1.652,3.4,3.4,0,0,1,.335-1.484,3.626,3.626,0,0,1,.977-1.239,4.818,4.818,0,0,1,1.566-.841,6.692,6.692,0,0,1,2.126-.308,7.84,7.84,0,0,1,3.2.574,7.517,7.517,0,0,1,2.269,1.56l-1.093,1.286a6.531,6.531,0,0,0-1.9-1.327,5.661,5.661,0,0,0-2.406-.493,5.172,5.172,0,0,0-1.476.181,2.841,2.841,0,0,0-.978.486,2,2,0,0,0-.561.686,1.832,1.832,0,0,0-.184.8,1.789,1.789,0,0,0,.832,1.6,9.013,9.013,0,0,0,2.77.99l2.416.736a5.535,5.535,0,0,1,1.769.869,3.464,3.464,0,0,1,1.056,1.289,4.442,4.442,0,0,1,.344,1.864,3.616,3.616,0,0,1-.437,1.793,4.1,4.1,0,0,1-1.19,1.33,5.334,5.334,0,0,1-1.8.818,9.2,9.2,0,0,1-2.311.272,7.735,7.735,0,0,1-3.466-.734A6.339,6.339,0,0,1,918.611,161.247Z" transform="translate(-1.627)"/><path d="M931.969,150.488v-1.654h2.584v-5.291h1.927v5.291h3.829v1.654H936.48v9.267a2.909,2.909,0,0,0,.479,1.8,2.225,2.225,0,0,0,1.846.623h.827a2.466,2.466,0,0,0,.718-.1v1.531c-.228.036-.52.074-.875.11a10.338,10.338,0,0,1-1.039.054,4.247,4.247,0,0,1-3-.854,3.743,3.743,0,0,1-.882-2.782v-9.653Z" transform="translate(-1.627)"/><path d="M943.768,163.586V148.834H945.7v2.937h.055a7.5,7.5,0,0,1,2.276-2.308,6.425,6.425,0,0,1,3.576-.916h.341l-.191,1.818h-.287a1.338,1.338,0,0,1-.192-.013.848.848,0,0,0-.109-.014,5.506,5.506,0,0,0-3.213.955,7,7,0,0,0-2.256,2.715v9.578Z" transform="translate(-1.627)"/><path d="M954.691,159.5V148.834h1.928v10.322a3.357,3.357,0,0,0,.7,2.331,2.916,2.916,0,0,0,2.243.759,5.2,5.2,0,0,0,2.645-.7,13.679,13.679,0,0,0,2.482-1.88V148.834h1.927v14.752h-1.927v-2.324a11.248,11.248,0,0,1-2.468,1.852,6.3,6.3,0,0,1-3.138.786,4.315,4.315,0,0,1-3.3-1.162A4.56,4.56,0,0,1,954.691,159.5Z" transform="translate(-1.627)"/><path d="M970.25,156.217a9.512,9.512,0,0,1,.557-3.425,7.028,7.028,0,0,1,1.476-2.393A5.744,5.744,0,0,1,974.4,149a6.827,6.827,0,0,1,2.427-.451,6.246,6.246,0,0,1,2.085.321,5.035,5.035,0,0,1,1.579.882,6.166,6.166,0,0,1,1.162,1.292,8.453,8.453,0,0,1,.821,1.538l-1.641.725a6.013,6.013,0,0,0-1.565-2.3,3.713,3.713,0,0,0-2.5-.8,4.706,4.706,0,0,0-1.647.308,3.788,3.788,0,0,0-1.483,1.025,5.37,5.37,0,0,0-1.06,1.86,8.446,8.446,0,0,0-.4,2.8,8.73,8.73,0,0,0,.348,2.584,5.818,5.818,0,0,0,.951,1.886,4.139,4.139,0,0,0,1.428,1.176,4,4,0,0,0,1.8.41,3.927,3.927,0,0,0,2.5-.745,6.648,6.648,0,0,0,1.743-2.4l1.559.67a11.231,11.231,0,0,1-.984,1.7,5.775,5.775,0,0,1-1.265,1.305,5.658,5.658,0,0,1-1.613.828,6.453,6.453,0,0,1-2.017.293,6,6,0,0,1-2.42-.5,5.835,5.835,0,0,1-2.041-1.491,7.285,7.285,0,0,1-1.394-2.406A9.6,9.6,0,0,1,970.25,156.217Z" transform="translate(-1.627)"/><path d="M984.387,150.488v-1.654h2.584v-5.291H988.9v5.291h3.829v1.654H988.9v9.267a2.909,2.909,0,0,0,.479,1.8,2.225,2.225,0,0,0,1.846.623h.827a2.466,2.466,0,0,0,.718-.1v1.531c-.228.036-.52.074-.875.11a10.338,10.338,0,0,1-1.039.054,4.247,4.247,0,0,1-3-.854,3.743,3.743,0,0,1-.882-2.782v-9.653Z" transform="translate(-1.627)"/><path d="M996.049,159.5V148.834h1.928v10.322a3.352,3.352,0,0,0,.7,2.331,2.915,2.915,0,0,0,2.242.759,5.211,5.211,0,0,0,2.646-.7,13.709,13.709,0,0,0,2.481-1.88V148.834h1.928v14.752h-1.928v-2.324a11.224,11.224,0,0,1-2.468,1.852,6.29,6.29,0,0,1-3.137.786,4.312,4.312,0,0,1-3.3-1.162A4.555,4.555,0,0,1,996.049,159.5Z" transform="translate(-1.627)"/><path d="M1012.455,163.586V148.834h1.928v2.937h.055a7.49,7.49,0,0,1,2.276-2.308,6.421,6.421,0,0,1,3.575-.916h.342l-.192,1.818h-.287a1.323,1.323,0,0,1-.191-.013.893.893,0,0,0-.109-.014,5.506,5.506,0,0,0-3.213.955,7,7,0,0,0-2.256,2.715v9.578Z" transform="translate(-1.627)"/><path d="M1021.861,156.19a9.157,9.157,0,0,1,.575-3.4,6.974,6.974,0,0,1,1.5-2.379,6.206,6.206,0,0,1,2.072-1.4,6.088,6.088,0,0,1,2.317-.465,5.815,5.815,0,0,1,2.4.492,5.219,5.219,0,0,1,1.9,1.456,7.18,7.18,0,0,1,1.265,2.406,10.841,10.841,0,0,1,.464,3.316v.369h-10.568a7.235,7.235,0,0,0,.376,2.432,5.555,5.555,0,0,0,1.005,1.786,4.25,4.25,0,0,0,3.268,1.5,4.8,4.8,0,0,0,2.7-.694,6.711,6.711,0,0,0,1.893-2.012l1.2.961a7.764,7.764,0,0,1-2.4,2.447,6.446,6.446,0,0,1-3.521.9,6.311,6.311,0,0,1-2.46-.492,5.65,5.65,0,0,1-2.055-1.476,7.474,7.474,0,0,1-1.408-2.407A9.542,9.542,0,0,1,1021.861,156.19Zm1.955-1.149h8.655a9.5,9.5,0,0,0-.376-1.932,4.96,4.96,0,0,0-.793-1.567,3.493,3.493,0,0,0-1.272-1.031,3.98,3.98,0,0,0-1.743-.364,4.118,4.118,0,0,0-1.545.3,4.022,4.022,0,0,0-1.346.9,5.08,5.08,0,0,0-1.026,1.519A7.08,7.08,0,0,0,1023.816,155.041Z" transform="translate(-1.627)"/><path d="M1037.174,156.2a10.692,10.692,0,0,1,.477-3.361,6.767,6.767,0,0,1,1.319-2.386,5.39,5.39,0,0,1,1.986-1.425,6.343,6.343,0,0,1,2.459-.477,5.665,5.665,0,0,1,2.67.648,7.37,7.37,0,0,1,2.1,1.622v-7.958h1.927v17.09a21.025,21.025,0,0,0,.1,2.208,4.952,4.952,0,0,0,.342,1.429h-2.025a6.7,6.7,0,0,1-.239-.991,7.063,7.063,0,0,1-.1-1.184,9.045,9.045,0,0,1-2.081,1.706,5.437,5.437,0,0,1-2.849.715,6.207,6.207,0,0,1-2.376-.459,5.02,5.02,0,0,1-1.932-1.412,7.118,7.118,0,0,1-1.291-2.386A10.722,10.722,0,0,1,1037.174,156.2Zm1.928.028a8.955,8.955,0,0,0,.348,2.641,5.38,5.38,0,0,0,.966,1.862,3.869,3.869,0,0,0,1.431,1.095,4.265,4.265,0,0,0,1.732.356,4.651,4.651,0,0,0,2.458-.651,10.524,10.524,0,0,0,2.143-1.772v-7.172a9.506,9.506,0,0,0-2.2-1.807,4.769,4.769,0,0,0-2.4-.629,4.458,4.458,0,0,0-1.8.362,3.667,3.667,0,0,0-1.417,1.109,5.519,5.519,0,0,0-.924,1.9A9.716,9.716,0,0,0,1039.1,156.224Z" transform="translate(-1.627)"/><path d="M1060.1,156.2a10.692,10.692,0,0,1,.477-3.361,6.766,6.766,0,0,1,1.318-2.386,5.4,5.4,0,0,1,1.987-1.425,6.339,6.339,0,0,1,2.459-.477,5.667,5.667,0,0,1,2.67.648,7.352,7.352,0,0,1,2.094,1.622v-7.958h1.928v17.09a20.755,20.755,0,0,0,.1,2.208,4.919,4.919,0,0,0,.342,1.429h-2.026a6.585,6.585,0,0,1-.238-.991,7.065,7.065,0,0,1-.1-1.184,9.024,9.024,0,0,1-2.081,1.706,5.433,5.433,0,0,1-2.848.715,6.207,6.207,0,0,1-2.376-.459,5.02,5.02,0,0,1-1.932-1.412,7.1,7.1,0,0,1-1.291-2.386A10.722,10.722,0,0,1,1060.1,156.2Zm1.927.028a8.953,8.953,0,0,0,.349,2.641,5.363,5.363,0,0,0,.966,1.862,3.866,3.866,0,0,0,1.43,1.095,4.27,4.27,0,0,0,1.733.356,4.651,4.651,0,0,0,2.458-.651,10.493,10.493,0,0,0,2.142-1.772v-7.172a9.482,9.482,0,0,0-2.2-1.807,4.769,4.769,0,0,0-2.4-.629,4.454,4.454,0,0,0-1.8.362,3.66,3.66,0,0,0-1.417,1.109,5.52,5.52,0,0,0-.925,1.9A9.754,9.754,0,0,0,1062.029,156.224Z" transform="translate(-1.627)"/><path d="M1076.617,160.131a4.2,4.2,0,0,1,.506-2.027,5,5,0,0,1,1.682-1.72,12.5,12.5,0,0,1,3.083-1.4,30.588,30.588,0,0,1,4.723-1.037v-.757a3.085,3.085,0,0,0-.764-2.292,3.045,3.045,0,0,0-2.225-.751,6.574,6.574,0,0,0-3.046.661,12.5,12.5,0,0,0-2.458,1.679l-1.047-1.212a11.831,11.831,0,0,1,2.941-1.974,8.8,8.8,0,0,1,3.788-.754,4.656,4.656,0,0,1,3.616,1.243,4.965,4.965,0,0,1,1.123,3.455v6.695a20.845,20.845,0,0,0,.1,2.213,5.759,5.759,0,0,0,.314,1.433h-1.994q-.138-.482-.24-.97a5.583,5.583,0,0,1-.1-1.147,9.2,9.2,0,0,1-2.709,1.772,8.033,8.033,0,0,1-3.105.591,4.463,4.463,0,0,1-3.083-.98A3.459,3.459,0,0,1,1076.617,160.131Zm1.928-.245a2.149,2.149,0,0,0,.71,1.76,3,3,0,0,0,1.965.586,6.887,6.887,0,0,0,2.907-.614,9.08,9.08,0,0,0,2.484-1.7v-4.585a29.985,29.985,0,0,0-3.923.88,10.9,10.9,0,0,0-2.471,1.058,3.7,3.7,0,0,0-1.3,1.228A2.76,2.76,0,0,0,1078.545,159.886Z" transform="translate(-1.627)"/><path d="M1091.26,150.488v-1.654h2.584v-5.291h1.927v5.291h3.829v1.654h-3.829v9.267a2.909,2.909,0,0,0,.479,1.8,2.225,2.225,0,0,0,1.846.623h.827a2.466,2.466,0,0,0,.718-.1v1.531c-.228.036-.52.074-.875.11a10.338,10.338,0,0,1-1.039.054,4.247,4.247,0,0,1-3-.854,3.743,3.743,0,0,1-.882-2.782v-9.653Z" transform="translate(-1.627)"/><path d="M1102.047,160.131a4.2,4.2,0,0,1,.506-2.027,5,5,0,0,1,1.681-1.72,12.539,12.539,0,0,1,3.083-1.4,30.63,30.63,0,0,1,4.724-1.037v-.757a3.081,3.081,0,0,0-.765-2.292,3.043,3.043,0,0,0-2.224-.751,6.571,6.571,0,0,0-3.046.661,12.466,12.466,0,0,0-2.458,1.679l-1.047-1.212a11.844,11.844,0,0,1,2.94-1.974,8.81,8.81,0,0,1,3.788-.754,4.657,4.657,0,0,1,3.617,1.243,4.965,4.965,0,0,1,1.123,3.455v6.695a21.155,21.155,0,0,0,.1,2.213,5.755,5.755,0,0,0,.315,1.433h-1.994q-.138-.482-.24-.97a5.514,5.514,0,0,1-.1-1.147,9.213,9.213,0,0,1-2.709,1.772,8.033,8.033,0,0,1-3.105.591,4.461,4.461,0,0,1-3.083-.98A3.459,3.459,0,0,1,1102.047,160.131Zm1.928-.245a2.149,2.149,0,0,0,.71,1.76,2.992,2.992,0,0,0,1.964.586,6.892,6.892,0,0,0,2.908-.614,9.11,9.11,0,0,0,2.484-1.7v-4.585a30,30,0,0,0-3.924.88,10.939,10.939,0,0,0-2.471,1.058,3.691,3.691,0,0,0-1.3,1.228A2.76,2.76,0,0,0,1103.975,159.886Z" transform="translate(-1.627)"/><path d="M1.627,158.492l1.791-.641a6.178,6.178,0,0,0,2.2,3.276A6.12,6.12,0,0,0,9.3,162.219a6.306,6.306,0,0,0,3.744-1,3.206,3.206,0,0,0,1.39-2.758,4.24,4.24,0,0,0-.226-1.434,2.816,2.816,0,0,0-.843-1.16,7.2,7.2,0,0,0-1.67-1.023,23.973,23.973,0,0,0-2.71-1.025q-1.671-.531-2.929-1.044a8.038,8.038,0,0,1-2.1-1.2,4.493,4.493,0,0,1-1.252-1.584,5.152,5.152,0,0,1-.415-2.177,4.676,4.676,0,0,1,.476-2.093A5.263,5.263,0,0,1,4.1,144.035,6.35,6.35,0,0,1,6.119,142.9a7.687,7.687,0,0,1,2.6-.419,9.072,9.072,0,0,1,2.614.35,6.712,6.712,0,0,1,2.032.983,6.459,6.459,0,0,1,1.493,1.517,7.621,7.621,0,0,1,.978,1.93l-1.682.778a5.7,5.7,0,0,0-2.142-2.873,6.061,6.061,0,0,0-3.32-.867,6.088,6.088,0,0,0-1.87.267,4.545,4.545,0,0,0-1.4.709,3,3,0,0,0-1.191,2.41,3.531,3.531,0,0,0,.28,1.474,2.94,2.94,0,0,0,.959,1.119,7.846,7.846,0,0,0,1.765.942q1.089.438,2.746.956a22.694,22.694,0,0,1,2.833,1.064,8.114,8.114,0,0,1,2,1.277,4.745,4.745,0,0,1,1.205,1.638,5.416,5.416,0,0,1,.4,2.177,4.979,4.979,0,0,1-.548,2.336,5.251,5.251,0,0,1-1.5,1.776,7.227,7.227,0,0,1-2.285,1.132,9.7,9.7,0,0,1-2.867.41,7.983,7.983,0,0,1-4.9-1.467A7.348,7.348,0,0,1,1.627,158.492Z" transform="translate(-1.627)"/><path d="M18.84,150.488v-1.654h2.584v-5.291h1.928v5.291H27.18v1.654H23.352v9.267a2.909,2.909,0,0,0,.478,1.8,2.225,2.225,0,0,0,1.846.623H26.5a2.466,2.466,0,0,0,.718-.1v1.531c-.228.036-.52.074-.875.11a10.323,10.323,0,0,1-1.039.054,4.251,4.251,0,0,1-3-.854,3.743,3.743,0,0,1-.882-2.782v-9.653Z" transform="translate(-1.627)"/><path d="M30.639,163.586V148.834h1.927v2.937h.055a7.5,7.5,0,0,1,2.276-2.308,6.425,6.425,0,0,1,3.576-.916h.341l-.191,1.818h-.287a1.313,1.313,0,0,1-.191-.013.878.878,0,0,0-.11-.014,5.506,5.506,0,0,0-3.213.955,7,7,0,0,0-2.256,2.715v9.578Z" transform="translate(-1.627)"/><path d="M41.562,159.5V148.834H43.49v10.322a3.352,3.352,0,0,0,.7,2.331,2.912,2.912,0,0,0,2.242.759,5.2,5.2,0,0,0,2.645-.7,13.679,13.679,0,0,0,2.482-1.88V148.834h1.927v14.752H51.557v-2.324a11.248,11.248,0,0,1-2.468,1.852,6.3,6.3,0,0,1-3.138.786,4.315,4.315,0,0,1-3.3-1.162A4.56,4.56,0,0,1,41.562,159.5Z" transform="translate(-1.627)"/><path d="M57.121,156.217a9.512,9.512,0,0,1,.557-3.425,7.028,7.028,0,0,1,1.476-2.393,5.747,5.747,0,0,1,2.117-1.4,6.818,6.818,0,0,1,2.426-.451,6.246,6.246,0,0,1,2.085.321,5.035,5.035,0,0,1,1.579.882,6.166,6.166,0,0,1,1.162,1.292,8.392,8.392,0,0,1,.821,1.538l-1.641.725a6.013,6.013,0,0,0-1.565-2.3,3.712,3.712,0,0,0-2.5-.8,4.707,4.707,0,0,0-1.648.308,3.788,3.788,0,0,0-1.483,1.025,5.37,5.37,0,0,0-1.06,1.86,8.472,8.472,0,0,0-.4,2.8,8.73,8.73,0,0,0,.348,2.584,5.818,5.818,0,0,0,.951,1.886,4.139,4.139,0,0,0,1.428,1.176,4,4,0,0,0,1.8.41,3.925,3.925,0,0,0,2.5-.745,6.648,6.648,0,0,0,1.743-2.4l1.559.67a11.231,11.231,0,0,1-.984,1.7,5.754,5.754,0,0,1-1.265,1.305,5.645,5.645,0,0,1-1.613.828,6.453,6.453,0,0,1-2.017.293,6,6,0,0,1-2.42-.5,5.835,5.835,0,0,1-2.041-1.491,7.285,7.285,0,0,1-1.394-2.406A9.6,9.6,0,0,1,57.121,156.217Z" transform="translate(-1.627)"/><path d="M71.258,150.488v-1.654h2.584v-5.291H75.77v5.291H79.6v1.654H75.77v9.267a2.909,2.909,0,0,0,.478,1.8,2.225,2.225,0,0,0,1.846.623h.827a2.466,2.466,0,0,0,.718-.1v1.531c-.228.036-.52.074-.875.11a10.323,10.323,0,0,1-1.039.054,4.251,4.251,0,0,1-3-.854,3.743,3.743,0,0,1-.882-2.782v-9.653Z" transform="translate(-1.627)"/><path d="M82.92,159.5V148.834h1.928v10.322a3.352,3.352,0,0,0,.7,2.331,2.915,2.915,0,0,0,2.242.759,5.211,5.211,0,0,0,2.646-.7,13.709,13.709,0,0,0,2.481-1.88V148.834h1.928v14.752H92.914v-2.324a11.224,11.224,0,0,1-2.468,1.852,6.29,6.29,0,0,1-3.137.786,4.312,4.312,0,0,1-3.3-1.162A4.555,4.555,0,0,1,82.92,159.5Z" transform="translate(-1.627)"/><path d="M99.326,163.586V148.834h1.928v2.937h.055a7.49,7.49,0,0,1,2.276-2.308,6.423,6.423,0,0,1,3.575-.916h.342l-.191,1.818h-.288a1.323,1.323,0,0,1-.191-.013.893.893,0,0,0-.109-.014,5.506,5.506,0,0,0-3.213.955,7,7,0,0,0-2.256,2.715v9.578Z" transform="translate(-1.627)"/><path d="M108.732,156.19a9.157,9.157,0,0,1,.575-3.4,6.961,6.961,0,0,1,1.5-2.379,6.193,6.193,0,0,1,2.071-1.4,6.092,6.092,0,0,1,2.317-.465,5.815,5.815,0,0,1,2.4.492,5.219,5.219,0,0,1,1.9,1.456,7.18,7.18,0,0,1,1.265,2.406,10.84,10.84,0,0,1,.465,3.316v.369H110.66a7.235,7.235,0,0,0,.376,2.432,5.555,5.555,0,0,0,1,1.786,4.25,4.25,0,0,0,3.268,1.5,4.8,4.8,0,0,0,2.7-.694A6.711,6.711,0,0,0,119.9,159.6l1.2.961a7.764,7.764,0,0,1-2.4,2.447,6.444,6.444,0,0,1-3.52.9,6.313,6.313,0,0,1-2.461-.492,5.65,5.65,0,0,1-2.055-1.476,7.474,7.474,0,0,1-1.408-2.407A9.542,9.542,0,0,1,108.732,156.19Zm1.956-1.149h8.654a9.5,9.5,0,0,0-.376-1.932,4.96,4.96,0,0,0-.793-1.567,3.493,3.493,0,0,0-1.272-1.031,3.976,3.976,0,0,0-1.743-.364,4.118,4.118,0,0,0-1.545.3,4.022,4.022,0,0,0-1.346.9,5.1,5.1,0,0,0-1.026,1.519A7.053,7.053,0,0,0,110.688,155.041Z" transform="translate(-1.627)"/><path d="M124.045,156.2a10.692,10.692,0,0,1,.477-3.361,6.767,6.767,0,0,1,1.319-2.386,5.39,5.39,0,0,1,1.986-1.425,6.343,6.343,0,0,1,2.459-.477,5.665,5.665,0,0,1,2.67.648,7.357,7.357,0,0,1,2.095,1.622v-7.958h1.928v17.09a21.063,21.063,0,0,0,.095,2.208,4.952,4.952,0,0,0,.342,1.429h-2.025a6.7,6.7,0,0,1-.239-.991,7.063,7.063,0,0,1-.1-1.184,9.045,9.045,0,0,1-2.081,1.706,5.434,5.434,0,0,1-2.849.715,6.207,6.207,0,0,1-2.376-.459,5.02,5.02,0,0,1-1.932-1.412,7.118,7.118,0,0,1-1.291-2.386A10.722,10.722,0,0,1,124.045,156.2Zm1.928.028a8.955,8.955,0,0,0,.348,2.641,5.38,5.38,0,0,0,.966,1.862,3.869,3.869,0,0,0,1.431,1.095,4.265,4.265,0,0,0,1.732.356,4.651,4.651,0,0,0,2.458-.651,10.524,10.524,0,0,0,2.143-1.772v-7.172a9.523,9.523,0,0,0-2.2-1.807,4.776,4.776,0,0,0-2.4-.629,4.458,4.458,0,0,0-1.8.362,3.667,3.667,0,0,0-1.417,1.109,5.519,5.519,0,0,0-.924,1.9A9.716,9.716,0,0,0,125.973,156.224Z" transform="translate(-1.627)"/><path d="M146.973,156.2a10.692,10.692,0,0,1,.477-3.361,6.767,6.767,0,0,1,1.319-2.386,5.39,5.39,0,0,1,1.986-1.425,6.343,6.343,0,0,1,2.459-.477,5.665,5.665,0,0,1,2.67.648,7.37,7.37,0,0,1,2.1,1.622v-7.958h1.927v17.09a20.755,20.755,0,0,0,.1,2.208,4.919,4.919,0,0,0,.342,1.429h-2.026a6.709,6.709,0,0,1-.238-.991,7.063,7.063,0,0,1-.1-1.184,9.05,9.05,0,0,1-2.082,1.706,5.43,5.43,0,0,1-2.848.715,6.207,6.207,0,0,1-2.376-.459,5.02,5.02,0,0,1-1.932-1.412,7.118,7.118,0,0,1-1.291-2.386A10.722,10.722,0,0,1,146.973,156.2Zm1.927.028a8.953,8.953,0,0,0,.349,2.641,5.363,5.363,0,0,0,.966,1.862,3.869,3.869,0,0,0,1.431,1.095,4.262,4.262,0,0,0,1.732.356,4.651,4.651,0,0,0,2.458-.651,10.524,10.524,0,0,0,2.143-1.772v-7.172a9.506,9.506,0,0,0-2.2-1.807,4.769,4.769,0,0,0-2.4-.629,4.454,4.454,0,0,0-1.8.362,3.66,3.66,0,0,0-1.417,1.109,5.538,5.538,0,0,0-.925,1.9A9.754,9.754,0,0,0,148.9,156.224Z" transform="translate(-1.627)"/><path d="M163.488,160.131a4.2,4.2,0,0,1,.506-2.027,5,5,0,0,1,1.682-1.72,12.5,12.5,0,0,1,3.083-1.4,30.588,30.588,0,0,1,4.723-1.037v-.757a3.081,3.081,0,0,0-.764-2.292,3.045,3.045,0,0,0-2.225-.751,6.574,6.574,0,0,0-3.046.661,12.5,12.5,0,0,0-2.458,1.679l-1.047-1.212a11.831,11.831,0,0,1,2.941-1.974,8.8,8.8,0,0,1,3.788-.754,4.656,4.656,0,0,1,3.616,1.243,4.965,4.965,0,0,1,1.123,3.455v6.695a20.845,20.845,0,0,0,.1,2.213,5.759,5.759,0,0,0,.314,1.433h-1.994q-.138-.482-.24-.97a5.583,5.583,0,0,1-.1-1.147,9.2,9.2,0,0,1-2.709,1.772,8.033,8.033,0,0,1-3.1.591,4.463,4.463,0,0,1-3.083-.98A3.462,3.462,0,0,1,163.488,160.131Zm1.928-.245a2.149,2.149,0,0,0,.71,1.76,3,3,0,0,0,1.965.586,6.887,6.887,0,0,0,2.907-.614,9.08,9.08,0,0,0,2.484-1.7v-4.585a29.985,29.985,0,0,0-3.923.88,10.9,10.9,0,0,0-2.471,1.058,3.7,3.7,0,0,0-1.3,1.228A2.76,2.76,0,0,0,165.416,159.886Z" transform="translate(-1.627)"/><path d="M178.131,150.488v-1.654h2.584v-5.291h1.928v5.291h3.828v1.654h-3.828v9.267a2.909,2.909,0,0,0,.478,1.8,2.225,2.225,0,0,0,1.846.623h.827a2.466,2.466,0,0,0,.718-.1v1.531c-.228.036-.52.074-.875.11a10.323,10.323,0,0,1-1.039.054,4.251,4.251,0,0,1-3-.854,3.743,3.743,0,0,1-.882-2.782v-9.653Z" transform="translate(-1.627)"/><path d="M188.918,160.131a4.2,4.2,0,0,1,.506-2.027,5,5,0,0,1,1.681-1.72,12.539,12.539,0,0,1,3.083-1.4,30.63,30.63,0,0,1,4.724-1.037v-.757a3.081,3.081,0,0,0-.765-2.292,3.043,3.043,0,0,0-2.224-.751,6.571,6.571,0,0,0-3.046.661,12.466,12.466,0,0,0-2.458,1.679l-1.047-1.212a11.844,11.844,0,0,1,2.94-1.974,8.811,8.811,0,0,1,3.789-.754,4.656,4.656,0,0,1,3.616,1.243,4.965,4.965,0,0,1,1.123,3.455v6.695a20.845,20.845,0,0,0,.1,2.213,5.715,5.715,0,0,0,.314,1.433h-1.994q-.138-.482-.24-.97a5.514,5.514,0,0,1-.1-1.147,9.213,9.213,0,0,1-2.709,1.772,8.033,8.033,0,0,1-3.1.591,4.461,4.461,0,0,1-3.083-.98A3.459,3.459,0,0,1,188.918,160.131Zm1.928-.245a2.149,2.149,0,0,0,.71,1.76,3,3,0,0,0,1.965.586,6.891,6.891,0,0,0,2.907-.614,9.11,9.11,0,0,0,2.484-1.7v-4.585a30.043,30.043,0,0,0-3.924.88,10.909,10.909,0,0,0-2.47,1.058,3.687,3.687,0,0,0-1.3,1.228A2.76,2.76,0,0,0,190.846,159.886Z" transform="translate(-1.627)"/><path d="M594.938,81h-3a6.375,6.375,0,0,1,12.75,0h-3a3.375,3.375,0,0,0-6.75,0Zm-47.625-3.375A3.379,3.379,0,0,1,550.688,81h3a6.375,6.375,0,0,0-12.75,0h3A3.379,3.379,0,0,1,547.313,77.625Zm-54,0A3.379,3.379,0,0,1,496.688,81h3a6.375,6.375,0,0,0-12.75,0h3A3.379,3.379,0,0,1,493.313,77.625Zm87,.375h-12V66h12Zm-3-9h-6v6h6Zm-51-4.5a6.375,6.375,0,1,1-6.375,6.375A6.382,6.382,0,0,1,526.313,64.5Zm-3.375,6.375a3.375,3.375,0,1,0,3.375-3.375A3.379,3.379,0,0,0,522.938,70.875Zm30-16.875a6.375,6.375,0,1,1,6.375,6.375A6.382,6.382,0,0,1,552.938,54Zm3,0a3.375,3.375,0,1,0,3.375-3.375A3.379,3.379,0,0,0,555.938,54ZM553.313,0V12H541.688V23.625h-12v-12h11.626V0ZM538.687,14.625h-6v6h6ZM550.313,3h-6V9h6Zm39,39h12V54h-12Zm3,9h6V45h-6Zm-3-15h-12V24h12Zm-3-9h-6v6h6Zm-63,30h-12V45h12Zm-3-9h-6v6h6ZM477.938,30a6.375,6.375,0,1,1,6.375,6.375A6.382,6.382,0,0,1,477.938,30Zm3,0a3.375,3.375,0,1,0,3.375-3.375A3.379,3.379,0,0,0,480.938,30Z" transform="translate(-1.627)"/><polygon class="cls-1" points="603.061 81 600.061 81 593.311 81 590.311 81 552.061 81 549.061 81 542.311 81 539.311 81 498.061 81 495.061 81 488.311 81 485.311 81 461.686 81 461.686 96 617.685 96 617.685 81 603.061 81"/><rect class="cls-2" x="592.312" y="69" width="15" height="39" transform="translate(509.685 688.312) rotate(-90)"/><rect class="cls-3" x="553.313" y="69" width="15" height="39" transform="translate(470.686 649.313) rotate(-90)"/><rect class="cls-4" x="514.313" y="69" width="15" height="39" transform="translate(431.686 610.313) rotate(-90)"/><path d="M120.721,73.962h12v-12h-12Zm3-9h6v6h-6Zm15,9h12v-12h-12Zm3-9h6v6h-6Zm-21-9h12v-12h-12Zm3-9h6v6h-6Zm33,9h12v-12h-12Zm3-9h6v6h-6Zm-21,9h12v-12h-12Zm3-9h6v6h-6Zm15,27h12v-12h-12Zm3-9h6v6h-6Zm-75-21.375A6.375,6.375,0,1,0,91.1,49.962,6.383,6.383,0,0,0,84.721,43.587Zm0,9.75A3.375,3.375,0,1,1,88.1,49.962,3.379,3.379,0,0,1,84.721,53.337Zm-18,8.25A6.375,6.375,0,1,0,73.1,67.962,6.383,6.383,0,0,0,66.721,61.587Zm0,9.75A3.375,3.375,0,1,1,70.1,67.962,3.379,3.379,0,0,1,66.721,71.337Zm0-27.75A6.375,6.375,0,1,0,73.1,49.962,6.383,6.383,0,0,0,66.721,43.587Zm0,9.75A3.375,3.375,0,1,1,70.1,49.962,3.379,3.379,0,0,1,66.721,53.337Zm-18-9.75A6.375,6.375,0,1,0,55.1,49.962,6.383,6.383,0,0,0,48.721,43.587Zm0,9.75A3.375,3.375,0,1,1,52.1,49.962,3.379,3.379,0,0,1,48.721,53.337Zm36,8.25A6.375,6.375,0,1,0,91.1,67.962,6.383,6.383,0,0,0,84.721,61.587Zm0,9.75A3.375,3.375,0,1,1,88.1,67.962,3.379,3.379,0,0,1,84.721,71.337Zm-36-9.75A6.375,6.375,0,1,0,55.1,67.962,6.383,6.383,0,0,0,48.721,61.587Zm0,9.75A3.375,3.375,0,1,1,52.1,67.962,3.379,3.379,0,0,1,48.721,71.337Z" transform="translate(-1.627)"/><path d="M120.721,38.113h12v-12h-12Zm3-9h6v6h-6Zm15,9h12v-12h-12Zm3-9h6v6h-6Zm-21-9h12v-12h-12Zm3-9h6v6h-6Zm33,9h12v-12h-12Zm3-9h6v6h-6Zm-21,9h12v-12h-12Zm3-9h6v6h-6Zm15,27h12v-12h-12Zm3-9h6v6h-6Zm-75-21.375A6.375,6.375,0,1,0,91.1,14.113,6.382,6.382,0,0,0,84.721,7.738Zm0,9.75A3.375,3.375,0,1,1,88.1,14.113,3.379,3.379,0,0,1,84.721,17.488Zm-18,8.25A6.375,6.375,0,1,0,73.1,32.113,6.382,6.382,0,0,0,66.721,25.738Zm0,9.75A3.375,3.375,0,1,1,70.1,32.113,3.379,3.379,0,0,1,66.721,35.488Zm0-27.75A6.375,6.375,0,1,0,73.1,14.113,6.382,6.382,0,0,0,66.721,7.738Zm0,9.75A3.375,3.375,0,1,1,70.1,14.113,3.379,3.379,0,0,1,66.721,17.488Zm-18-9.75A6.375,6.375,0,1,0,55.1,14.113,6.382,6.382,0,0,0,48.721,7.738Zm0,9.75A3.375,3.375,0,1,1,52.1,14.113,3.379,3.379,0,0,1,48.721,17.488Zm36,8.25A6.375,6.375,0,1,0,91.1,32.113,6.382,6.382,0,0,0,84.721,25.738Zm0,9.75A3.375,3.375,0,1,1,88.1,32.113,3.379,3.379,0,0,1,84.721,35.488Zm-36-9.75A6.375,6.375,0,1,0,55.1,32.113,6.382,6.382,0,0,0,48.721,25.738Zm0,9.75A3.375,3.375,0,1,1,52.1,32.113,3.379,3.379,0,0,1,48.721,35.488Z" transform="translate(-1.627)"/><polygon class="cls-5" points="167.469 81 164.469 81 157.719 81 154.719 81 116.469 81 113.469 81 106.719 81 103.719 81 62.469 81 59.469 81 52.719 81 49.719 81 26.094 81 26.094 96 182.093 96 182.093 81 167.469 81"/><rect class="cls-2" x="156.72" y="69" width="15" height="39" transform="translate(74.093 252.72) rotate(-90)"/><rect class="cls-3" x="117.721" y="69" width="15" height="39" transform="translate(35.094 213.721) rotate(-90)"/><rect class="cls-4" x="78.721" y="69" width="15" height="39" transform="translate(-3.906 174.721) rotate(-90)"/><path d="M932.175,73.962h12v-12h-12Zm3-9h6v6h-6Zm-3-9h12v-12h-12Zm3-9h6v6h-6Zm20.73-3.375a6.375,6.375,0,1,0,6.375,6.375A6.383,6.383,0,0,0,955.905,43.587Zm0,9.75a3.375,3.375,0,1,1,3.375-3.375A3.379,3.379,0,0,1,955.905,53.337Zm-18-27.625a6.375,6.375,0,1,0,6.375,6.375A6.382,6.382,0,0,0,937.905,25.712Zm0,9.75a3.375,3.375,0,1,1,3.375-3.375A3.379,3.379,0,0,1,937.905,35.462Zm0-27.75a6.375,6.375,0,1,0,6.375,6.375A6.382,6.382,0,0,0,937.905,7.712Zm0,9.75a3.375,3.375,0,1,1,3.375-3.375A3.379,3.379,0,0,1,937.905,17.462Zm-18,26.125a6.375,6.375,0,1,0,6.375,6.375A6.383,6.383,0,0,0,919.905,43.587Zm0,9.75a3.375,3.375,0,1,1,3.375-3.375A3.379,3.379,0,0,1,919.905,53.337Zm36,8.25a6.375,6.375,0,1,0,6.375,6.375A6.383,6.383,0,0,0,955.905,61.587Zm0,9.75a3.375,3.375,0,1,1,3.375-3.375A3.379,3.379,0,0,1,955.905,71.337Zm-36-9.75a6.375,6.375,0,1,0,6.375,6.375A6.383,6.383,0,0,0,919.905,61.587Zm0,9.75a3.375,3.375,0,1,1,3.375-3.375A3.379,3.379,0,0,1,919.905,71.337Z" transform="translate(-1.627)"/><path d="M961.53,8.113h-12v12h12Zm-3,9h-6v-6h6Zm3,9h-12v12h12Zm-3,9h-6v-6h6Zm-33-9h-12v12h12Zm-3,9h-6v-6h6Zm3-27h-12v12h12Zm-3,9h-6v-6h6Z" transform="translate(-1.627)"/><path d="M1020.8,8.087h-12v12h12Zm-3,9h-6v-6h6Zm3,9h-12v12h12Zm-3,9h-6v-6h6Zm-20.73,3.375a6.375,6.375,0,1,0-6.375-6.375A6.382,6.382,0,0,0,997.068,38.462Zm0-9.75a3.375,3.375,0,1,1-3.375,3.375A3.379,3.379,0,0,1,997.068,28.712Zm18,27.625a6.375,6.375,0,1,0-6.375-6.375A6.382,6.382,0,0,0,1015.068,56.337Zm0-9.75a3.375,3.375,0,1,1-3.375,3.375A3.379,3.379,0,0,1,1015.068,46.587Zm0,27.75a6.375,6.375,0,1,0-6.375-6.375A6.382,6.382,0,0,0,1015.068,74.337Zm0-9.75a3.375,3.375,0,1,1-3.375,3.375A3.379,3.379,0,0,1,1015.068,64.587Zm18-26.125a6.375,6.375,0,1,0-6.375-6.375A6.382,6.382,0,0,0,1033.068,38.462Zm0-9.75a3.375,3.375,0,1,1-3.375,3.375A3.379,3.379,0,0,1,1033.068,28.712Zm-36-8.25a6.375,6.375,0,1,0-6.375-6.375A6.382,6.382,0,0,0,997.068,20.462Zm0-9.75a3.375,3.375,0,1,1-3.375,3.375A3.379,3.379,0,0,1,997.068,10.712Zm36,9.75a6.375,6.375,0,1,0-6.375-6.375A6.382,6.382,0,0,0,1033.068,20.462Zm0-9.75a3.375,3.375,0,1,1-3.375,3.375A3.379,3.379,0,0,1,1033.068,10.712Z" transform="translate(-1.627)"/><path d="M991.443,73.936h12v-12h-12Zm3-9h6v6h-6Zm-3-9h12v-12h-12Zm3-9h6v6h-6Zm33,9h12v-12h-12Zm3-9h6v6h-6Zm-3,27h12v-12h-12Zm3-9h6v6h-6Z" transform="translate(-1.627)"/><polygon class="cls-6" points="1038.653 81 1035.653 81 1028.903 81 1025.903 81 987.653 81 984.653 81 977.903 81 974.903 81 933.653 81 930.653 81 923.903 81 920.903 81 897.278 81 897.278 96 1053.277 96 1053.277 81 1038.653 81"/><rect class="cls-2" x="1027.904" y="69" width="15" height="39" transform="translate(945.277 1123.904) rotate(-90)"/><rect class="cls-3" x="988.905" y="69" width="15" height="39" transform="translate(906.278 1084.905) rotate(-90)"/><rect class="cls-4" x="949.905" y="69" width="15" height="39" transform="translate(867.278 1045.905) rotate(-90)"/></g></g></svg>